<svg xmlns="http://www.w3.org/2000/svg" viewBox="0 0 635 56">
  <defs>
    <style>
      .cls-1 {
        fill-rule: evenodd;
      }
    </style>
  </defs>
  <path id="fuckbusinessrivals" class="cls-1" d="M25.795,0.644c-1.9-.076-3.724-0.228-5.624-0.228-9.8,0-13.453,4.028-13.453,13.073V15.54H0.333v7.3H6.718V54.758H17.51V22.837h7.6v-7.3H17.434V12.424c0-3.268.912-4.028,4.788-4.028,1.14,0,1.9.076,3.572,0.152v-7.9ZM64.4,15.54H53.686V35.757c0,5.928-1.748,11.1-8.512,11.1-6.156,0-6.612-3.952-6.612-8.892V15.54H27.693V41.914c0,9.349,5.244,13.985,13.681,13.985A14.6,14.6,0,0,0,54.142,49.21v5.548H64.4V15.54ZM107.95,39.634H97.537c-0.836,5.168-3.724,7.9-8.36,7.9-5.776,0-9.121-4.484-9.121-12.313,0-8.056,3.5-12.769,9.349-12.769,4.18,0,6.992,2.432,7.752,6.764h10.565C106.81,20.1,99.818,14.4,89.329,14.4c-12.161,0-20.141,8.36-20.141,21.053,0,12.237,7.9,20.293,19.989,20.293C99.59,55.747,106.582,49.818,107.95,39.634ZM150.129,15.54H137.437L123.6,29.6V0.644H113.039V54.758H123.6v-13.3l4.408-4.1,10.793,17.4h13.072l-16.493-24.7Zm14.058-14.9H153.47V54.758h10.261l-0.076-4.94c2.888,4.18,7.22,6,12.313,6,10.336,0,17.405-8.512,17.405-21.053,0-11.173-6-20.141-16.8-20.141a15.173,15.173,0,0,0-12.389,5.7V0.644Zm9.045,22.269c5.624,0,9.272,4.712,9.272,11.933,0,7.448-3.648,12.313-9.272,12.313-5.853,0-9.425-4.636-9.425-12.237C163.807,27.549,167.455,22.913,173.232,22.913ZM234.64,15.54H223.923V35.757c0,5.928-1.748,11.1-8.512,11.1-6.157,0-6.613-3.952-6.613-8.892V15.54H197.93V41.914c0,9.349,5.244,13.985,13.681,13.985a14.6,14.6,0,0,0,12.768-6.688v5.548H234.64V15.54Zm39.291,11.4c-0.3-9.12-8.057-12.541-17.025-12.541-10.945,0-17.177,4.332-17.177,12.009,0,9.348,9.12,10.413,16.113,12.009,5.624,1.292,8.816,1.9,8.816,5.244,0,2.964-2.736,4.864-7.144,4.864-4.94,0-7.981-1.824-8.361-6.536h-10.26c0.152,10.033,8.588,13.909,18.393,13.909,11.172,0,17.937-5.092,17.937-13.3,0-8.892-8.209-10.717-15.277-12.161-6.232-1.292-9.577-1.748-9.577-5.016,0-2.432,2.281-3.876,6.081-3.876,4.332,0,6.84,1.292,7.448,5.4h10.033Zm16.642-26.3H279.78v9.12h10.793V0.644Zm0,14.9H279.78V54.758h10.793V15.54Zm43.321,39.218V28.537c0-9.12-5.321-14.061-13.605-14.061a15.517,15.517,0,0,0-13,6.536V15.54h-10.26V54.758h10.716V33.705c0-5.7,2.052-10.337,8.513-10.337,5.776,0,6.688,3.648,6.688,8.513V54.758h10.945ZM376.757,42.6H366.42c-1.6,3.952-4.028,5.7-7.98,5.7-5.777,0-9.045-3.648-9.2-10.413h28.122V36.822c0-13.757-7.525-22.421-19.381-22.421-11.4,0-19.685,8.816-19.685,20.977,0,12.313,7.98,20.521,20.065,20.521C367.256,55.9,374.324,51.11,376.757,42.6ZM366.42,31.045H349.243c0.608-5.472,3.952-8.817,8.741-8.817C363.38,22.229,365.964,26.257,366.42,31.045Zm48.108-4.1c-0.3-9.12-8.057-12.541-17.025-12.541-10.945,0-17.177,4.332-17.177,12.009,0,9.348,9.12,10.413,16.113,12.009,5.624,1.292,8.816,1.9,8.816,5.244,0,2.964-2.736,4.864-7.144,4.864-4.941,0-7.981-1.824-8.361-6.536H379.49c0.152,10.033,8.588,13.909,18.393,13.909,11.172,0,17.937-5.092,17.937-13.3,0-8.892-8.209-10.717-15.277-12.161-6.232-1.292-9.577-1.748-9.577-5.016,0-2.432,2.28-3.876,6.081-3.876,4.332,0,6.84,1.292,7.448,5.4h10.033Zm38.683,0c-0.3-9.12-8.057-12.541-17.025-12.541-10.945,0-17.177,4.332-17.177,12.009,0,9.348,9.12,10.413,16.113,12.009,5.624,1.292,8.816,1.9,8.816,5.244,0,2.964-2.736,4.864-7.144,4.864-4.94,0-7.981-1.824-8.361-6.536h-10.26c0.152,10.033,8.588,13.909,18.393,13.909,11.172,0,17.937-5.092,17.937-13.3,0-8.892-8.209-10.717-15.277-12.161-6.232-1.292-9.577-1.748-9.577-5.016,0-2.432,2.281-3.876,6.081-3.876,4.332,0,6.84,1.292,7.448,5.4h10.033Zm31.006-12.085a14.38,14.38,0,0,0-2.356-.228,13.5,13.5,0,0,0-12.693,8.132V15.54h-10.26V54.758H469.7V36.822c0-7.144,2.888-12.465,10.336-12.465a19.151,19.151,0,0,1,4.18.456V14.856ZM497.288,0.644H486.5v9.12h10.793V0.644Zm0,14.9H486.5V54.758h10.793V15.54Zm30.78,0-8.36,26.753L511.347,15.54h-11.4L513.4,54.758h12.085l13.3-39.218H528.068Zm49.476,39.218c-1.444-3.344-1.368-7.068-1.368-10.641V27.169c0-10.945-9.2-12.769-17.1-12.769-11.324,0-17.557,4.484-18.165,13.225h10.109c0.76-4.484,2.812-6,7.752-6,4.788,0,7.068,1.672,7.068,5.244,0,3.192-2.584,3.8-9.576,4.712-7.752.988-17.1,2.2-17.1,12.465,0,7.372,5.32,11.857,13.985,11.857a17.792,17.792,0,0,0,12.692-4.94,11.668,11.668,0,0,0,.761,3.8h10.944Zm-11.78-19.077V40.09c0,5.624-3.953,8.741-9.577,8.741-3.724,0-5.928-1.976-5.928-5.244,0-4.788,4.18-5.244,7.9-5.852C560.9,37.278,563.255,37.126,565.764,35.681Zm27.89-35.038H582.861V54.758h10.793V0.644Zm39.521,26.3c-0.3-9.12-8.057-12.541-17.025-12.541-10.945,0-17.177,4.332-17.177,12.009,0,9.348,9.121,10.413,16.113,12.009,5.624,1.292,8.816,1.9,8.816,5.244,0,2.964-2.736,4.864-7.144,4.864-4.94,0-7.98-1.824-8.36-6.536H598.137C598.289,52.022,606.725,55.9,616.53,55.9c11.173,0,17.937-5.092,17.937-13.3,0-8.892-8.208-10.717-15.277-12.161-6.232-1.292-9.576-1.748-9.576-5.016,0-2.432,2.28-3.876,6.08-3.876,4.332,0,6.84,1.292,7.448,5.4h10.033Z"/>
</svg>
