<svg xmlns="http://www.w3.org/2000/svg" width="180" height="110" viewBox="0 0 180 110">
  <metadata><?xpacket begin="﻿" id="W5M0MpCehiHzreSzNTczkc9d"?>
<x:xmpmeta xmlns:x="adobe:ns:meta/" x:xmptk="Adobe XMP Core 5.6-c138 79.159824, 2016/09/14-01:09:01        ">
   <rdf:RDF xmlns:rdf="http://www.w3.org/1999/02/22-rdf-syntax-ns#">
      <rdf:Description rdf:about=""/>
   </rdf:RDF>
</x:xmpmeta>
                                                                                                    
                                                                                                    
                                                                                                    
                                                                                                    
                                                                                                    
                                                                                                    
                                                                                                    
                                                                                                    
                                                                                                    
                                                                                                    
                                                                                                    
                                                                                                    
                                                                                                    
                                                                                                    
                                                                                                    
                                                                                                    
                                                                                                    
                                                                                                    
                                                                                                    
                                                                                                    
                           
<?xpacket end="w"?></metadata>
<defs>
    <style>
      .cls-1 {
        fill: #e0ece7;
        fill-rule: evenodd;
      }
    </style>
  </defs>
  <path class="cls-1" d="M111,80h29a5,5,0,1,1,0,10H97a5,5,0,0,0,0,10h35a5,5,0,1,1,0,10H24a5,5,0,1,1,0-10H75a5,5,0,0,0,0-10H6A5,5,0,1,1,6,80H62a5,5,0,0,0,0-10H50v0a5,5,0,1,1,0-10H86a5,5,0,0,0,0-10h0L14,50H5A5,5,0,0,1,5,40H47a5,5,0,1,0,0-10H23a5,5,0,0,1,0-10H80a5,5,0,1,0,0-10H10A5,5,0,0,1,10,0H169a5,5,0,0,1,0,10H104a5,5,0,1,0,0,10h26a5,5,0,0,1,0,10H118a5,5,0,1,0,0,10h57a5,5,0,0,1,0,10H107a5,5,0,0,0,0,10h54a5,5,0,0,1,0,10H111A5,5,0,0,0,111,80Zm59,30H150a5,5,0,1,1,0-10h20A5,5,0,1,1,170,110Z"/>
</svg>
