<svg 
 xmlns="http://www.w3.org/2000/svg"
 xmlns:xlink="http://www.w3.org/1999/xlink"
 width="123" height="90" viewBox="0 0 123 90">
<path fill-rule="evenodd"  opacity="0.051" fill="rgb(0, 0, 0)"
 d="M113.000,59.999 L45.000,59.999 C42.191,59.999 40.000,57.761 40.000,54.999 C40.000,52.238 42.191,49.999 45.000,49.999 L98.000,49.999 C100.789,49.999 103.000,47.760 103.000,45.000 C103.000,42.238 100.789,39.999 98.000,39.999 L78.000,39.999 C75.192,39.999 73.000,37.761 73.000,34.999 C73.000,32.237 75.192,30.000 78.000,30.000 L118.000,30.000 C120.789,30.000 123.000,27.760 123.000,24.999 C123.000,22.238 120.789,19.999 118.000,19.999 L77.000,19.999 C74.191,19.999 72.000,17.762 72.000,15.000 C72.000,12.238 74.191,9.999 77.000,9.999 L107.000,9.999 C109.789,9.999 112.000,7.761 112.000,4.999 C112.000,2.237 109.789,-0.001 107.000,-0.001 L18.000,-0.001 C15.210,-0.001 13.000,2.237 13.000,4.999 C13.000,7.761 15.210,9.999 18.000,9.999 L57.000,9.999 C59.808,9.999 62.000,12.238 62.000,15.000 C62.000,17.762 59.808,19.999 57.000,19.999 L5.000,19.999 C2.210,19.999 -0.000,22.238 -0.000,24.999 C-0.000,27.760 2.210,30.000 5.000,30.000 L58.000,30.000 C60.808,30.000 63.000,32.237 63.000,34.999 C63.000,37.761 60.808,39.999 58.000,39.999 L22.000,39.999 C19.210,39.999 17.000,42.238 17.000,45.000 C17.000,47.760 19.210,49.999 22.000,49.999 L25.000,49.999 C27.808,49.999 30.000,52.238 30.000,54.999 C30.000,57.761 27.808,59.999 25.000,59.999 L9.000,59.999 C6.210,59.999 4.000,62.238 4.000,65.000 C4.000,67.761 6.210,70.000 9.000,70.000 L56.000,70.000 C58.808,70.000 61.000,72.236 61.000,74.998 C61.000,77.760 58.808,80.000 56.000,80.000 L28.000,80.000 C25.210,80.000 23.000,82.238 23.000,85.000 C23.000,87.761 25.210,89.999 28.000,89.999 L113.000,89.999 C115.789,89.999 118.000,87.761 118.000,85.000 C118.000,82.238 115.789,80.000 113.000,80.000 L76.000,80.000 C73.191,80.000 71.000,77.760 71.000,74.998 C71.000,72.236 73.191,70.000 76.000,70.000 L113.000,70.000 C115.789,70.000 118.000,67.761 118.000,65.000 C118.000,62.238 115.789,59.999 113.000,59.999 Z"/>
</svg>