<svg 
 xmlns="http://www.w3.org/2000/svg"
 xmlns:xlink="http://www.w3.org/1999/xlink"
 width="130" height="90" viewBox="0 0 130 90">
<path fill-rule="evenodd"  opacity="0.051" fill="rgb(0, 0, 0)"
 d="M125.000,70.000 L67.000,70.000 C64.191,70.000 62.000,72.236 62.000,74.998 C62.000,77.760 64.191,80.000 67.000,80.000 L109.000,80.000 C111.789,80.000 114.000,82.238 114.000,85.000 C114.000,87.761 111.789,89.999 109.000,89.999 L14.000,89.999 C11.210,89.999 9.000,87.761 9.000,85.000 C9.000,82.238 11.210,80.000 14.000,80.000 L47.000,80.000 C49.808,80.000 52.000,77.760 52.000,74.998 C52.000,72.236 49.808,70.000 47.000,70.000 L25.000,70.000 C22.210,70.000 20.000,67.761 20.000,65.000 C20.000,62.238 22.210,59.999 25.000,59.999 L91.000,59.999 C93.808,59.999 96.000,57.761 96.000,54.999 C96.000,52.238 93.808,49.999 91.000,49.999 L18.000,49.999 C15.210,49.999 13.000,47.760 13.000,45.000 C13.000,42.238 15.210,39.999 18.000,39.999 L54.000,39.999 C56.808,39.999 59.000,37.761 59.000,34.999 C59.000,32.237 56.808,30.000 54.000,30.000 L41.000,30.000 C38.210,30.000 36.000,27.760 36.000,24.999 C36.000,22.238 38.210,19.999 41.000,19.999 L78.000,19.999 C80.808,19.999 83.000,17.762 83.000,15.000 C83.000,12.238 80.808,9.999 78.000,9.999 L14.000,9.999 C11.210,9.999 9.000,7.761 9.000,4.999 C9.000,2.237 11.210,-0.001 14.000,-0.001 L102.000,-0.001 C104.789,-0.001 107.000,2.237 107.000,4.999 C107.000,7.761 104.789,9.999 102.000,9.999 L98.000,9.999 C95.191,9.999 93.000,12.238 93.000,15.000 C93.000,17.762 95.191,19.999 98.000,19.999 L114.000,19.999 C116.789,19.999 119.000,22.238 119.000,24.999 C119.000,27.760 116.789,30.000 114.000,30.000 L74.000,30.000 C71.192,30.000 69.000,32.237 69.000,34.999 C69.000,37.761 71.192,39.999 74.000,39.999 L115.000,39.999 C117.789,39.999 120.000,42.238 120.000,45.000 C120.000,47.760 117.789,49.999 115.000,49.999 L111.000,49.999 C108.191,49.999 106.000,52.238 106.000,54.999 C106.000,57.761 108.191,59.999 111.000,59.999 L125.000,59.999 C127.789,59.999 130.000,62.238 130.000,65.000 C130.000,67.761 127.789,70.000 125.000,70.000 ZM26.000,24.996 C26.000,27.756 23.761,29.996 21.000,29.996 L5.000,29.996 C2.238,29.996 -0.000,27.756 -0.000,24.996 C-0.000,22.235 2.238,19.996 5.000,19.996 L21.000,19.996 C23.761,19.996 26.000,22.235 26.000,24.996 Z"/>
</svg>