<svg xmlns="http://www.w3.org/2000/svg" width="66" height="54" viewBox="0 0 66 54">
  <metadata><?xpacket begin="﻿" id="W5M0MpCehiHzreSzNTczkc9d"?>
<x:xmpmeta xmlns:x="adobe:ns:meta/" x:xmptk="Adobe XMP Core 5.6-c138 79.159824, 2016/09/14-01:09:01        ">
   <rdf:RDF xmlns:rdf="http://www.w3.org/1999/02/22-rdf-syntax-ns#">
      <rdf:Description rdf:about=""/>
   </rdf:RDF>
</x:xmpmeta>
                                                                                                    
                                                                                                    
                                                                                                    
                                                                                                    
                                                                                                    
                                                                                                    
                                                                                                    
                                                                                                    
                                                                                                    
                                                                                                    
                                                                                                    
                                                                                                    
                                                                                                    
                                                                                                    
                                                                                                    
                                                                                                    
                                                                                                    
                                                                                                    
                                                                                                    
                                                                                                    
                           
<?xpacket end="w"?></metadata>
<defs>
    <style>
      .cls-1 {
        fill: #226d4f;
      }

      .cls-1, .cls-2 {
        fill-rule: evenodd;
      }

      .cls-2 {
        fill: #16d488;
      }
    </style>
  </defs>
  <path class="cls-1" d="M62,46H4a4,4,0,0,1-4-4V4A4,4,0,0,1,4,0H62a4,4,0,0,1,4,4V42A4,4,0,0,1,62,46ZM4,2A2,2,0,0,0,2,4V42a2,2,0,0,0,2,2H62a2,2,0,0,0,2-2V4a2,2,0,0,0-2-2H4ZM1,52H65a1,1,0,0,1,1,1h0a1,1,0,0,1-1,1H1a1,1,0,0,1-1-1H0A1,1,0,0,1,1,52Z"/>
  <path class="cls-2" d="M54.611,26.769a12.85,12.85,0,0,1-3.98-3.1,21.934,21.934,0,0,0-2.224-2.029,2.952,2.952,0,0,1-3.085-.148A19.522,19.522,0,0,0,42.9,23.664c-0.508.509-1.022,1.022-1.547,1.49a3.048,3.048,0,1,1-5.318,1.535,13.666,13.666,0,0,1-3.793-3.025,24.422,24.422,0,0,0-2.057-1.908,2.959,2.959,0,0,1-3.032-.412A17.117,17.117,0,0,0,24.5,23.664a20.874,20.874,0,0,1-2.671,2.389A2.968,2.968,0,0,1,22,27a3,3,0,1,1-5.768-1.154,23.7,23.7,0,0,1-2.385-2.181,11.822,11.822,0,0,0-3.28-2.65,0.928,0.928,0,0,1-.588-0.876,1,1,0,0,1,1.348-.913,12.856,12.856,0,0,1,3.98,3.1,21.575,21.575,0,0,0,2.254,2.053,2.939,2.939,0,0,1,3.077.11,19.764,19.764,0,0,0,2.4-2.163A17.9,17.9,0,0,1,26.089,19.7a3,3,0,1,1,5.548.705A28.032,28.032,0,0,1,33.7,22.329a12.677,12.677,0,0,0,3.148,2.586A2.988,2.988,0,0,1,39,24a3.042,3.042,0,0,1,.594.059c0.615-.509,1.246-1.135,1.841-1.73a20.473,20.473,0,0,1,2.72-2.422A2.963,2.963,0,0,1,44,19a3,3,0,1,1,5.755,1.185,24.317,24.317,0,0,1,2.337,2.144,11.8,11.8,0,0,0,3.28,2.65,0.928,0.928,0,0,1,.588.877A1,1,0,0,1,54.611,26.769ZM19,26a1,1,0,1,0,1,1A1,1,0,0,0,19,26Zm10-8a1,1,0,1,0,1,1A1,1,0,0,0,29,18Zm10,8a1,1,0,1,0,1,1A1,1,0,0,0,39,26Zm8-8a1,1,0,1,0,1,1A1,1,0,0,0,47,18Z"/>
</svg>
