<svg xmlns="http://www.w3.org/2000/svg" width="74" height="58" viewBox="0 0 74 58">
  <metadata><?xpacket begin="﻿" id="W5M0MpCehiHzreSzNTczkc9d"?>
<x:xmpmeta xmlns:x="adobe:ns:meta/" x:xmptk="Adobe XMP Core 5.6-c138 79.159824, 2016/09/14-01:09:01        ">
   <rdf:RDF xmlns:rdf="http://www.w3.org/1999/02/22-rdf-syntax-ns#">
      <rdf:Description rdf:about=""/>
   </rdf:RDF>
</x:xmpmeta>
                                                                                                    
                                                                                                    
                                                                                                    
                                                                                                    
                                                                                                    
                                                                                                    
                                                                                                    
                                                                                                    
                                                                                                    
                                                                                                    
                                                                                                    
                                                                                                    
                                                                                                    
                                                                                                    
                                                                                                    
                                                                                                    
                                                                                                    
                                                                                                    
                                                                                                    
                                                                                                    
                           
<?xpacket end="w"?></metadata>
<defs>
    <style>
      .cls-1 {
        fill: #16d488;
      }

      .cls-1, .cls-2 {
        fill-rule: evenodd;
      }

      .cls-2 {
        fill: #226d4f;
      }
    </style>
  </defs>
  <path id="Shape_9782_copy" data-name="Shape 9782 copy" class="cls-1" d="M55.99,2.009a1.984,1.984,0,0,1,1.607.815L71.8,22.153a1.006,1.006,0,0,1-.8,1.6H64.982a2,2,0,0,0-2,2.01V53.9a2,2,0,0,1-2,2.01H50.995a2,2,0,0,1-2-2.01V25.766a2,2,0,0,0-2-2.01H40.987a1.006,1.006,0,0,1-.8-1.6l14.2-19.328a1.984,1.984,0,0,1,1.607-.815m0-2.01a3.951,3.951,0,0,0-3.214,1.63l-14.2,19.329a3.015,3.015,0,0,0-.266,3.15,2.982,2.982,0,0,0,2.676,1.658H47V53.9a4.013,4.013,0,0,0,4,4.02h9.991a4.013,4.013,0,0,0,4-4.02V25.766h6.012a2.981,2.981,0,0,0,2.676-1.658,3.015,3.015,0,0,0-.266-3.15L59.2,1.63A3.951,3.951,0,0,0,55.99,0h0Z"/>
  <path id="Shape_9782_copy_2" data-name="Shape 9782 copy 2" class="cls-2" d="M17.833,55.989a1.958,1.958,0,0,0,1.592-.815L33.489,35.846a1.006,1.006,0,0,0-.8-1.6H26.739a2,2,0,0,1-1.979-2.01V4.094a1.994,1.994,0,0,0-1.979-2.01h-9.9a1.994,1.994,0,0,0-1.979,2.01V32.233a2,2,0,0,1-1.979,2.01H2.973a1.006,1.006,0,0,0-.8,1.6L16.242,55.174a1.958,1.958,0,0,0,1.591.815m0,2.01a3.9,3.9,0,0,1-3.183-1.63L0.586,37.041A3.041,3.041,0,0,1,.323,33.89a2.95,2.95,0,0,1,2.651-1.657H8.928V4.094A3.994,3.994,0,0,1,12.886.075h9.9a3.994,3.994,0,0,1,3.958,4.019V32.233h5.955a2.95,2.95,0,0,1,2.65,1.657,3.04,3.04,0,0,1-.263,3.151L21.016,56.369A3.9,3.9,0,0,1,17.833,58h0Z"/>
</svg>
