<svg xmlns="http://www.w3.org/2000/svg" width="65" height="66" viewBox="0 0 65 66">
  <metadata><?xpacket begin="﻿" id="W5M0MpCehiHzreSzNTczkc9d"?>
<x:xmpmeta xmlns:x="adobe:ns:meta/" x:xmptk="Adobe XMP Core 5.6-c138 79.159824, 2016/09/14-01:09:01        ">
   <rdf:RDF xmlns:rdf="http://www.w3.org/1999/02/22-rdf-syntax-ns#">
      <rdf:Description rdf:about=""/>
   </rdf:RDF>
</x:xmpmeta>
                                                                                                    
                                                                                                    
                                                                                                    
                                                                                                    
                                                                                                    
                                                                                                    
                                                                                                    
                                                                                                    
                                                                                                    
                                                                                                    
                                                                                                    
                                                                                                    
                                                                                                    
                                                                                                    
                                                                                                    
                                                                                                    
                                                                                                    
                                                                                                    
                                                                                                    
                                                                                                    
                           
<?xpacket end="w"?></metadata>
<defs>
    <style>
      .cls-1 {
        fill: #226d4f;
      }

      .cls-1, .cls-2 {
        fill-rule: evenodd;
      }

      .cls-2 {
        fill: #16d488;
      }
    </style>
  </defs>
  <path class="cls-1" d="M50.694,37.517l-34,17.547a6.945,6.945,0,0,0-.811-1.833l33.724-17.4A6.963,6.963,0,0,0,50.694,37.517Zm-0.839-7.806L16.036,12.486a6.925,6.925,0,0,0,.755-1.862L51.033,28.07A7.012,7.012,0,0,0,49.856,29.711Z"/>
  <path class="cls-2" d="M9,0A9,9,0,1,1,0,9,9,9,0,0,1,9,0ZM9,2A7,7,0,1,1,2,9,7,7,0,0,1,9,2ZM9,48a9,9,0,1,1-9,9A9,9,0,0,1,9,48Zm0,2a7,7,0,1,1-7,7A7,7,0,0,1,9,50ZM56,24a9,9,0,1,1-9,9A9,9,0,0,1,56,24Zm0,2a7,7,0,1,1-7,7A7,7,0,0,1,56,26Z"/>
</svg>
