<svg xmlns="http://www.w3.org/2000/svg" width="68" height="60" viewBox="0 0 68 60">
  <metadata><?xpacket begin="﻿" id="W5M0MpCehiHzreSzNTczkc9d"?>
<x:xmpmeta xmlns:x="adobe:ns:meta/" x:xmptk="Adobe XMP Core 5.6-c138 79.159824, 2016/09/14-01:09:01        ">
   <rdf:RDF xmlns:rdf="http://www.w3.org/1999/02/22-rdf-syntax-ns#">
      <rdf:Description rdf:about=""/>
   </rdf:RDF>
</x:xmpmeta>
                                                                                                    
                                                                                                    
                                                                                                    
                                                                                                    
                                                                                                    
                                                                                                    
                                                                                                    
                                                                                                    
                                                                                                    
                                                                                                    
                                                                                                    
                                                                                                    
                                                                                                    
                                                                                                    
                                                                                                    
                                                                                                    
                                                                                                    
                                                                                                    
                                                                                                    
                                                                                                    
                           
<?xpacket end="w"?></metadata>
<defs>
    <style>
      .cls-1 {
        fill: #16d488;
      }

      .cls-1, .cls-2 {
        fill-rule: evenodd;
      }

      .cls-2 {
        fill: #226d4f;
      }
    </style>
  </defs>
  <path class="cls-1" d="M50,28H29a2,2,0,0,1-2,2H25a2,2,0,0,1-2-2H18V26h5a2,2,0,0,1,2-2h2a2,2,0,0,1,2,2H50v2ZM27,26H25v2h2V26ZM50,38H44a2,2,0,0,1-2,2H40a2,2,0,0,1-2-2H18V36H38a2,2,0,0,1,2-2h2a2,2,0,0,1,2,2h6v2Zm-8-2H40v2h2V36Zm8,12H32a2,2,0,0,1-2,2H28a2,2,0,0,1-2-2H18V46h8a2,2,0,0,1,2-2h2a2,2,0,0,1,2,2H50v2ZM30,46H28v2h2V46Z"/>
  <path class="cls-2" d="M44,12a10,10,0,0,0-20,0v3H22V12h0a12,12,0,1,1,24,0v3H44V12ZM54.312,59.966H13.683A13.3,13.3,0,0,1,.469,45.035L2.539,23.31A9.542,9.542,0,0,1,12,14.956H56a9.534,9.534,0,0,1,9.453,8.324L67.53,45.064A13.294,13.294,0,0,1,54.312,59.966ZM12,16.948a7.537,7.537,0,0,0-7.473,6.58L2.452,45.252A11.3,11.3,0,0,0,13.683,57.976H54.312A11.3,11.3,0,0,0,65.547,45.282L63.47,23.5A7.53,7.53,0,0,0,56,16.948H12Z"/>
</svg>
