<svg 
 xmlns="http://www.w3.org/2000/svg"
 xmlns:xlink="http://www.w3.org/1999/xlink"
 width="1217" height="898">
<path fill-rule="evenodd"  fill="rgb(52, 56, 53)"
 d="M1166.921,49.998 L1006.920,49.998 C979.297,49.998 956.904,72.384 956.904,99.999 C956.904,127.614 979.297,150.000 1006.920,150.000 L1089.983,150.000 C1117.606,150.000 1139.999,172.385 1139.999,199.999 C1139.999,227.614 1117.606,249.999 1089.983,249.999 L1056.910,249.999 C1029.287,249.999 1006.893,272.384 1006.893,300.000 C1006.893,327.614 1029.287,349.999 1056.910,349.999 L1134.961,349.999 C1162.585,349.999 1184.978,372.385 1184.978,399.998 C1184.978,427.613 1162.585,449.999 1134.961,449.999 L768.890,449.999 C741.266,449.999 718.873,472.385 718.873,499.999 C718.873,527.614 741.266,550.000 768.890,550.000 L936.937,550.000 C964.560,550.000 986.954,572.384 986.954,599.999 L986.954,599.999 C986.954,627.613 964.560,649.999 936.937,649.999 L703.409,649.999 C675.785,649.999 653.392,672.385 653.392,699.999 L653.392,700.000 C653.392,727.613 675.785,749.999 703.409,749.999 L1039.979,749.999 C1067.603,749.999 1089.996,772.385 1089.996,799.999 C1089.996,827.614 1067.603,850.000 1039.979,850.000 L1002.463,850.000 C975.510,850.000 953.548,871.313 952.497,898.000 L0.000,898.000 L0.000,850.000 L0.000,749.999 L0.000,649.999 L0.000,550.000 L0.000,449.999 L0.000,349.999 L0.000,249.999 L0.000,150.000 L0.000,49.998 L0.000,-0.000 L1216.938,-0.000 C1216.938,27.613 1194.545,49.998 1166.921,49.998 Z"/>
</svg>