<svg 
 xmlns="http://www.w3.org/2000/svg"
 xmlns:xlink="http://www.w3.org/1999/xlink"
 width="142" height="90" viewBox="0 0 142 90">
<path fill-rule="evenodd"  fill="rgb(240, 247, 245)"
 d="M137.000,29.995 L96.000,29.995 C93.192,29.995 91.000,32.234 91.000,34.996 C91.000,37.755 93.192,39.996 96.000,39.996 L109.000,39.996 C111.789,39.996 114.000,42.233 114.000,44.995 C114.000,47.756 111.789,49.996 109.000,49.996 L103.000,49.996 C100.192,49.996 98.000,52.234 98.000,54.996 C98.000,57.757 100.192,59.995 103.000,59.995 L121.000,59.995 C123.789,59.995 126.000,62.236 126.000,64.996 C126.000,67.757 123.789,69.996 121.000,69.996 L103.000,69.996 C100.192,69.996 98.000,72.233 98.000,74.995 C98.000,77.757 100.192,79.996 103.000,79.996 L132.000,79.996 C134.789,79.996 137.000,82.233 137.000,84.994 C137.000,87.756 134.789,89.996 132.000,89.996 L29.000,89.996 C26.210,89.996 24.000,87.756 24.000,84.994 C24.000,82.233 26.210,79.996 29.000,79.996 L51.000,79.996 C53.808,79.996 56.000,77.757 56.000,74.995 C56.000,72.233 53.808,69.996 51.000,69.996 L5.000,69.996 C2.211,69.996 -0.000,67.757 -0.000,64.996 C-0.000,62.236 2.211,59.995 5.000,59.995 L51.000,59.995 C53.808,59.995 56.000,57.757 56.000,54.996 C56.000,52.234 53.808,49.996 51.000,49.996 L17.000,49.996 C14.211,49.996 12.000,47.756 12.000,44.995 C12.000,42.233 14.211,39.996 17.000,39.996 L32.000,39.996 C34.808,39.996 37.000,37.755 37.000,34.996 C37.000,32.234 34.808,29.995 32.000,29.995 L14.000,29.995 C11.211,29.995 9.000,27.758 9.000,24.995 C9.000,22.233 11.211,19.995 14.000,19.995 L91.000,19.995 C93.808,19.995 96.000,17.758 96.000,14.996 C96.000,12.233 93.808,9.994 91.000,9.994 L23.000,9.994 C20.210,9.994 18.000,7.757 18.000,4.995 C18.000,2.235 20.210,-0.005 23.000,-0.005 L126.000,-0.005 C128.789,-0.005 131.000,2.235 131.000,4.995 C131.000,7.757 128.789,9.994 126.000,9.994 L111.000,9.994 C108.192,9.994 106.000,12.233 106.000,14.996 C106.000,17.758 108.192,19.995 111.000,19.995 L137.000,19.995 C139.789,19.995 142.000,22.233 142.000,24.995 C142.000,27.758 139.789,29.995 137.000,29.995 ZM141.000,44.995 C141.000,47.756 138.761,49.996 136.000,49.996 L129.000,49.996 C126.238,49.996 124.000,47.756 124.000,44.995 C124.000,42.235 126.238,39.996 129.000,39.996 L136.000,39.996 C138.761,39.996 141.000,42.235 141.000,44.995 Z"/>
</svg>