<svg xmlns="http://www.w3.org/2000/svg" width="78" height="78" viewBox="0 0 78 78">
  <metadata><?xpacket begin="﻿" id="W5M0MpCehiHzreSzNTczkc9d"?>
<x:xmpmeta xmlns:x="adobe:ns:meta/" x:xmptk="Adobe XMP Core 5.6-c138 79.159824, 2016/09/14-01:09:01        ">
   <rdf:RDF xmlns:rdf="http://www.w3.org/1999/02/22-rdf-syntax-ns#">
      <rdf:Description rdf:about=""/>
   </rdf:RDF>
</x:xmpmeta>
                                                                                                    
                                                                                                    
                                                                                                    
                                                                                                    
                                                                                                    
                                                                                                    
                                                                                                    
                                                                                                    
                                                                                                    
                                                                                                    
                                                                                                    
                                                                                                    
                                                                                                    
                                                                                                    
                                                                                                    
                                                                                                    
                                                                                                    
                                                                                                    
                                                                                                    
                                                                                                    
                           
<?xpacket end="w"?></metadata>
<defs>
    <style>
      .cls-1 {
        fill: #226d4f;
      }

      .cls-2, .cls-4 {
        fill: #16d488;
      }

      .cls-3 {
        fill: #246e50;
      }

      .cls-3, .cls-4, .cls-5 {
        fill-rule: evenodd;
      }

      .cls-5 {
        fill: #c1ecdb;
      }
    </style>
  </defs>
  <circle id="Ellipse_28_copy_2" data-name="Ellipse 28 copy 2" class="cls-1" cx="13" cy="32" r="13"/>
  <circle id="Ellipse_28_copy_3" data-name="Ellipse 28 copy 3" class="cls-2" cx="13" cy="32" r="11"/>
  <path class="cls-3" d="M21.9,65.877a5.008,5.008,0,0,1,2.6,5.767l-0.518,1.932a5.006,5.006,0,0,1-6.124,3.535L13.927,76.06a6.945,6.945,0,0,1-4.906-8.5l8.3-30.97L28.911,39.7Z"/>
  <path id="Shape_9792_copy" data-name="Shape 9792 copy" class="cls-4" d="M18.734,39.043L10.953,68.081a4.943,4.943,0,0,0,3.491,6.047l3.924,1.052a3,3,0,0,0,3.674-2.122l0.518-1.931a3,3,0,0,0-2.121-3.674l-0.966-.259,6.988-26.08Z"/>
  <path class="cls-3" d="M75.424,41.146L68,43.941V19.949l7.424,2.8A4,4,0,0,1,78,26.477V37.414A4,4,0,0,1,75.424,41.146Z"/>
  <path id="Shape_9793_copy" data-name="Shape 9793 copy" class="cls-4" d="M70,22.848v18.2l4.722-1.778A1.985,1.985,0,0,0,76,37.414V26.477a1.986,1.986,0,0,0-1.278-1.851Z"/>
  <path class="cls-3" d="M71.873,63.333a2.988,2.988,0,0,1-1.868.656,3.043,3.043,0,0,1-.666-0.074l-58-13.072A2.98,2.98,0,0,1,9,47.922V16.179a2.98,2.98,0,0,1,2.339-2.921l58-13.072A3,3,0,0,1,73,3.108V60.994A2.978,2.978,0,0,1,71.873,63.333Z"/>
  <path id="Shape_9791_copy" data-name="Shape 9791 copy" class="cls-4" d="M11.78,15.206a0.993,0.993,0,0,0-.78.973V47.922a0.994,0.994,0,0,0,.78.974l58,13.072A1,1,0,0,0,71,60.994V3.108a1,1,0,0,0-1.22-.974Z"/>
  <path class="cls-5" d="M67,6.693V56.712L15,45.08V18.326L67,6.693"/>
</svg>
