<svg 
 xmlns="http://www.w3.org/2000/svg"
 xmlns:xlink="http://www.w3.org/1999/xlink"
 width="142" height="90" viewBox="0 0 142 90">
<path fill-rule="evenodd"  fill="rgb(240, 247, 245)"
 d="M126.000,29.995 L66.000,29.995 C63.191,29.995 61.000,32.234 61.000,34.996 C61.000,37.755 63.191,39.996 66.000,39.996 L137.000,39.996 C139.789,39.996 142.000,42.233 142.000,44.995 C142.000,47.756 139.789,49.996 137.000,49.996 L81.000,49.996 C78.192,49.996 76.000,52.234 76.000,54.996 C76.000,57.757 78.192,59.995 81.000,59.995 L131.000,59.995 C133.789,59.995 136.000,62.236 136.000,64.996 C136.000,67.757 133.789,69.996 131.000,69.996 L71.000,69.996 C68.192,69.996 66.000,72.233 66.000,74.995 C66.000,77.757 68.192,79.996 71.000,79.996 L99.000,79.996 C101.789,79.996 104.000,82.233 104.000,84.994 C104.000,87.756 101.789,89.996 99.000,89.996 L38.000,89.996 C35.210,89.996 33.000,87.756 33.000,84.994 C33.000,82.233 35.210,79.996 38.000,79.996 L51.000,79.996 C53.808,79.996 56.000,77.757 56.000,74.995 C56.000,72.233 53.808,69.996 51.000,69.996 L5.000,69.996 C2.210,69.996 -0.000,67.757 -0.000,64.996 C-0.000,62.236 2.210,59.995 5.000,59.995 L51.000,59.995 C53.808,59.995 56.000,57.757 56.000,54.996 C56.000,52.234 53.808,49.996 51.000,49.996 L16.000,49.996 C13.211,49.996 11.000,47.756 11.000,44.995 C11.000,42.233 13.211,39.996 16.000,39.996 L41.000,39.996 C43.808,39.996 46.000,37.755 46.000,34.996 C46.000,32.234 43.808,29.995 41.000,29.995 L13.000,29.995 C10.211,29.995 8.000,27.758 8.000,24.995 C8.000,22.233 10.211,19.995 13.000,19.995 L51.000,19.995 C53.808,19.995 56.000,17.758 56.000,14.996 C56.000,12.233 53.808,9.994 51.000,9.994 L12.000,9.994 C9.210,9.994 7.000,7.757 7.000,4.995 C7.000,2.235 9.210,-0.005 12.000,-0.005 L136.000,-0.005 C138.789,-0.005 141.000,2.235 141.000,4.995 C141.000,7.757 138.789,9.994 136.000,9.994 L91.000,9.994 C88.192,9.994 86.000,12.233 86.000,14.996 C86.000,17.758 88.192,19.995 91.000,19.995 L126.000,19.995 C128.789,19.995 131.000,22.233 131.000,24.995 C131.000,27.758 128.789,29.995 126.000,29.995 Z"/>
</svg>