<?xml version="1.0" standalone="no"?>
<!DOCTYPE svg PUBLIC "-//W3C//DTD SVG 20010904//EN"
 "http://www.w3.org/TR/2001/REC-SVG-20010904/DTD/svg10.dtd">
<svg version="1.0" xmlns="http://www.w3.org/2000/svg"
 width="700.000000pt" height="700.000000pt" viewBox="0 0 700.000000 700.000000"
 preserveAspectRatio="xMidYMid meet">
<metadata>
Created by potrace 1.11, written by Peter Selinger 2001-2013
</metadata>
<g transform="translate(0.000000,700.000000) scale(0.100000,-0.100000)"
fill="#000000" stroke="none">
<path d="M660 6983 c-42 -21 -163 -139 -249 -246 -182 -225 -313 -472 -370
-697 -42 -166 -49 -376 -17 -524 45 -206 152 -405 309 -571 24 -26 43 -60 53
-95 76 -263 305 -502 619 -645 148 -67 405 -141 555 -159 25 -3 55 -8 67 -10
11 -3 56 -7 100 -11 43 -3 92 -8 108 -10 35 -5 494 -8 515 -3 13 3 15 -27 18
-194 l2 -198 -290 0 -291 0 -127 79 c-70 43 -179 109 -242 147 -63 38 -117 71
-120 74 -31 33 -126 38 -185 11 -90 -40 -139 -154 -103 -238 28 -65 57 -87
341 -261 254 -156 313 -189 350 -198 4 -1 156 -2 337 -3 l330 -1 0 -210 0
-210 -42 -1 c-24 0 -154 -1 -289 -1 -202 -1 -249 2 -270 14 -13 8 -107 66
-209 128 -102 61 -196 120 -210 129 -85 60 -169 72 -241 35 -129 -65 -143
-243 -26 -326 18 -13 77 -50 132 -84 55 -34 172 -105 260 -159 88 -54 176
-105 195 -113 29 -12 97 -15 372 -15 185 0 336 -3 335 -6 -1 -6 10 -102 19
-161 10 -62 63 -209 106 -292 139 -271 397 -481 692 -565 50 -14 93 -27 95
-29 4 -4 2 -227 -3 -279 -29 -298 -172 -563 -351 -650 -75 -37 -93 -40 -270
-39 -145 1 -169 3 -250 28 -152 46 -274 114 -388 216 -102 93 -232 267 -303
407 -91 180 -347 142 -371 -54 -4 -42 -1 -61 21 -109 87 -189 307 -462 471
-584 33 -25 62 -47 65 -50 3 -3 28 -20 55 -37 125 -79 323 -159 451 -182 32
-6 70 -14 84 -17 51 -12 310 -11 382 1 281 49 492 217 641 511 35 67 92 212
102 257 2 12 9 40 15 62 26 106 41 242 43 404 l2 113 90 23 c370 94 655 350
789 708 31 81 63 229 65 298 l1 26 330 0 c251 0 338 4 362 14 47 19 575 343
610 374 81 72 80 205 -2 279 -59 53 -149 68 -214 35 -26 -14 -321 -193 -429
-261 l-78 -50 -267 0 c-147 0 -277 1 -289 1 l-23 1 0 210 0 210 324 0 c219 0
334 4 357 12 19 6 82 41 142 77 59 36 115 71 125 76 38 22 279 171 312 193 61
41 87 81 96 146 16 112 -76 215 -192 216 -52 0 -91 -20 -371 -193 l-223 -137
-285 0 -285 0 0 194 0 195 243 0 c133 0 258 2 277 5 19 3 67 8 105 11 199 17
432 63 585 117 174 62 334 150 465 255 63 51 185 187 208 231 8 15 26 50 41
77 15 28 38 83 52 124 19 57 37 88 82 140 216 246 313 497 307 794 -3 125 -5
144 -31 260 -63 274 -261 610 -509 863 -84 85 -112 104 -170 111 -144 17 -256
-129 -200 -263 8 -20 51 -75 96 -122 138 -147 255 -314 326 -462 74 -156 102
-272 101 -420 -1 -156 -42 -280 -137 -415 -62 -88 -62 -88 -97 -63 -41 29 -94
100 -111 151 -47 136 -9 306 124 557 59 110 67 131 66 176 -4 186 -235 259
-347 111 -36 -48 -140 -252 -174 -342 -56 -147 -76 -256 -75 -395 2 -234 109
-442 297 -577 28 -20 53 -38 55 -39 10 -8 -59 -106 -110 -156 -133 -132 -332
-227 -591 -282 -62 -13 -140 -27 -173 -31 -32 -4 -68 -9 -79 -11 -68 -13 -612
-23 -621 -11 -2 1 -5 79 -8 172 -3 94 -8 181 -11 195 -72 328 -234 574 -496
750 -36 24 -67 45 -69 46 -2 2 -5 88 -6 191 -2 206 -8 235 -61 285 -58 55
-149 66 -224 28 -80 -41 -101 -92 -102 -251 l-2 -119 -157 0 -157 0 0 106 c-1
58 -4 120 -8 138 -30 145 -219 199 -323 93 -48 -51 -59 -95 -60 -232 0 -66 0
-147 -1 -180 l0 -60 -76 -48 c-148 -96 -298 -266 -384 -436 -84 -169 -116
-309 -119 -533 -1 -79 -4 -144 -5 -145 -12 -12 -553 -2 -622 11 -11 2 -47 7
-79 11 -156 18 -366 75 -498 134 -149 67 -293 183 -351 284 -16 26 -27 49 -25
51 2 1 24 17 49 34 58 39 160 144 196 202 127 202 141 450 42 745 -35 106
-149 331 -196 385 -87 103 -254 82 -315 -40 -37 -75 -30 -122 38 -245 106
-192 148 -320 148 -450 0 -104 -27 -177 -88 -236 -70 -68 -68 -68 -125 13
-104 147 -141 252 -146 413 -5 160 26 287 110 455 79 157 202 328 328 455 73
73 98 119 98 180 0 78 -35 135 -105 173 -43 23 -123 25 -165 5z m3064 -1699
c280 -94 465 -314 511 -609 9 -55 8 -2215 0 -2290 -35 -301 -278 -565 -581
-630 -91 -19 -268 -14 -349 10 -222 65 -407 227 -489 430 -59 145 -57 118 -57
1335 0 653 4 1138 10 1170 53 310 310 567 606 607 22 3 42 7 45 10 3 3 55 3
115 0 81 -4 131 -13 189 -33z"/>
</g>
</svg>
