<svg xmlns="http://www.w3.org/2000/svg" viewBox="0 0 90 90">
<defs>
    <style>
      .cls-1 {
        fill: #0e2f22;
      }

      .cls-2 {
        fill: #16d488;
        fill-rule: evenodd;
      }
    </style>
  </defs>
  <circle id="Shape_1_copy_5" data-name="Shape 1 copy 5" class="cls-1" cx="45" cy="45" r="45"/>
  <path id="Shape_1_copy_5-2" data-name="Shape 1 copy 5" class="cls-2" d="M35.94,25.643a23.458,23.458,0,0,0-2.473-1.857c2.739-2.156,2.063-6.722,2.063-6.722s0.761,0.566,1.449,3.474A5.323,5.323,0,0,1,35.94,25.643Zm18.529-8.579s-0.661,4.565,2.067,6.722a24.918,24.918,0,0,0-2.476,1.857,5.325,5.325,0,0,1-1.023-5.105C53.725,17.63,54.469,17.064,54.469,17.064ZM61.254,31.1a5.648,5.648,0,0,1-1.995,3.091v0.115q0,7.868-5,11.682a15.217,15.217,0,0,1-7.979,2.836V61.59a1.59,1.59,0,0,1,.239.17c1.094,1.007,2.71,2.921,2.233,4.977s-3.133,2.141-3.358,3.729c0.015-1.829.225-4.1-.632-1.97s0.072,6.891,5.508,9.387c0,0-4.846-.582-7.124-3.574s-2.4-6.239-1.391-9.812A4.875,4.875,0,0,1,43.4,61.816V48.827q-6.3,0-9.637-3.87T30.416,34.308v-0.4A6.166,6.166,0,0,1,28.744,31.1c-1.361-4.2-1.572-8.153.45-12.053s6.84-5.2,6.84-5.2C30.8,17.531,30.334,23.43,31.4,25.9l0.168,0.34h0.521c-0.027-.681-0.155-1.787-0.252-2.808,0.379,1.9,3.076,1.673,3.765,4.111,0.674,2.426-.774,4.937-1.77,6.3a1.934,1.934,0,0,1-.522.482,24.12,24.12,0,0,0,.3,3.787,10.19,10.19,0,0,0,1.474,3.77,9.389,9.389,0,0,0,3.877,3.248,12.988,12.988,0,0,0,5.889,1.347,12.8,12.8,0,0,0,5.913-1.319,9.487,9.487,0,0,0,3.949-3.587A10.817,10.817,0,0,0,56,37.966a21.719,21.719,0,0,0,.378-3.914,1.773,1.773,0,0,1-.212-0.213c-1-1.361-2.442-3.872-1.77-6.3,0.688-2.438,3.387-2.211,3.765-4.111-0.083,1.021-.222,2.127-0.238,2.808h0.522l0.167-.34c1.068-2.468.6-8.367-4.649-12.054,0,0,4.847,1.3,6.855,5.2S62.619,26.9,61.254,31.1Z"/>
</svg>
