<svg xmlns="http://www.w3.org/2000/svg" width="339" height="339" viewBox="0 0 339 339">
  <metadata><?xpacket begin="﻿" id="W5M0MpCehiHzreSzNTczkc9d"?>
<x:xmpmeta xmlns:x="adobe:ns:meta/" x:xmptk="Adobe XMP Core 5.6-c138 79.159824, 2016/09/14-01:09:01        ">
   <rdf:RDF xmlns:rdf="http://www.w3.org/1999/02/22-rdf-syntax-ns#">
      <rdf:Description rdf:about=""/>
   </rdf:RDF>
</x:xmpmeta>
                                                                                                    
                                                                                                    
                                                                                                    
                                                                                                    
                                                                                                    
                                                                                                    
                                                                                                    
                                                                                                    
                                                                                                    
                                                                                                    
                                                                                                    
                                                                                                    
                                                                                                    
                                                                                                    
                                                                                                    
                                                                                                    
                                                                                                    
                                                                                                    
                                                                                                    
                                                                                                    
                           
<?xpacket end="w"?></metadata>
<defs>
    <style>
      .cls-1 {
        fill: #fff;
        fill-rule: evenodd;
        opacity: 0.2;
      }
    </style>
  </defs>
  <path class="cls-1" d="M193.44,171.347a8.524,8.524,0,1,1-6.031-14.542h0A8.517,8.517,0,0,1,193.44,171.347ZM182.6,160.523a6.8,6.8,0,1,0,4.806-1.988h0A6.756,6.756,0,0,0,182.6,160.523Zm-10.889,32.523a8.531,8.531,0,0,1-14.559-6.023h0A8.529,8.529,0,1,1,171.714,193.046Zm-12.827-6.023a6.791,6.791,0,1,0,1.99-4.8,6.8,6.8,0,0,0-1.99,4.8h0Zm5.076-6.758h-1.732V169.4H144.209a6.784,6.784,0,0,1-6.787-6.779v-0.865h24.809V137.213H163.1a6.789,6.789,0,0,1,6.786,6.778v17.766h10.642v1.729H168.152v-19.5a5.059,5.059,0,0,0-4.19-4.974v24.47H139.227a5.056,5.056,0,0,0,4.982,4.184h19.754v12.594Zm5.921,0h-1.732V167.671h12.374v1.73H169.884v10.865Zm-2.154-13.139a2.258,2.258,0,1,1,0-3.192A2.265,2.265,0,0,1,167.73,167.127Zm-1.97-1.968a0.527,0.527,0,1,0,.745,0A0.525,0.525,0,0,0,165.76,165.159Zm24.6,3.11a4.169,4.169,0,1,1,0-5.892A4.177,4.177,0,0,1,190.358,168.269Zm-4.674-4.669a2.438,2.438,0,1,0,3.45,0A2.438,2.438,0,0,0,185.684,163.6Zm-17.051,26.369a4.169,4.169,0,1,1,0-5.892A4.18,4.18,0,0,1,168.633,189.969Zm-4.674-4.669a2.438,2.438,0,1,0,3.449,0A2.438,2.438,0,0,0,163.959,185.3Z"/>
  <path id="Shape_9799_copy_6" data-name="Shape 9799 copy 6" class="cls-1" d="M219.545,262.168l-11.313-11.334,16.823-16.852,11.313,11.333Zm-8.866-11.334,8.867,8.883,14.376-14.4-8.867-8.882Zm22.937-5.825-8.256-8.27,18.658-18.691,8.256,8.27Zm-5.809-8.271,5.809,5.82,16.211-16.24-5.809-5.82Zm22.632-9.807-7.032-7.045,8.258-8.273a7.783,7.783,0,0,1,11.009,0,2.172,2.172,0,0,1,0,3.064Zm-4.586-7.046,4.586,4.595,11.012-11.031a0.435,0.435,0,0,0,0-.613,6.053,6.053,0,0,0-8.563,0Z"/>
  <path id="Shape_9799_copy_5" data-name="Shape 9799 copy 5" class="cls-1" d="M336.719,302.521L302.605,336.6a7.819,7.819,0,0,1-11.037,0l-18.63-18.608a7.8,7.8,0,0,1,0-11.023l34.114-34.074a7.821,7.821,0,0,1,11.037,0l18.63,18.608A7.8,7.8,0,0,1,336.719,302.521Zm-62.556,5.666a6.064,6.064,0,0,0,0,8.574l18.63,18.608a6.081,6.081,0,0,0,8.584,0L335.492,301.3a6.063,6.063,0,0,0,0-8.573l-18.63-18.608a6.081,6.081,0,0,0-8.584,0Zm41.776,7.653a15.7,15.7,0,1,1,0-22.193A15.741,15.741,0,0,1,315.939,315.84Zm-21-20.972a13.971,13.971,0,1,0,19.766,0A13.966,13.966,0,0,0,294.943,294.868Zm17.916,17.9a11.352,11.352,0,1,1,0-16.041A11.378,11.378,0,0,1,312.859,312.764Zm-14.837-14.82a9.619,9.619,0,1,0,13.608,0A9.616,9.616,0,0,0,298.022,297.944Zm4.459-17.988-20.929,20.9-1.525-1.523a5.09,5.09,0,0,1,0-7.2l13.727-13.71a5.1,5.1,0,0,1,7.2,0Zm-20.93,18.455,18.477-18.455-0.3-.3a3.366,3.366,0,0,0-4.752,0l-13.726,13.71a3.357,3.357,0,0,0,0,4.746Z"/>
  <path id="Shape_9799_copy_4" data-name="Shape 9799 copy 4" class="cls-1" d="M271.181,85.776l-46.418,46.363-31.288-31.251,46.418-46.362Zm-46.418,43.913,43.965-43.913-28.835-28.8-43.965,43.914Zm54-41.711-51.8,51.735-7.286-4.949L273.809,80.7Zm-52.009,49.5,49.768-49.709-2.969-4.36-51.164,51.1Zm-4.65-54.353a2.514,2.514,0,1,1,0-3.552A2.519,2.519,0,0,1,222.105,83.122Zm-2.33-2.327a0.78,0.78,0,1,0,1.1,0A0.78,0.78,0,0,0,219.775,80.794Z"/>
  <path class="cls-1" d="M188.375,7.34L146.061,49.6l-5.11-5.1a7.076,7.076,0,0,1,0-10l32.3-32.259a7.1,7.1,0,0,1,10.017,0ZM146.061,47.153L185.922,7.34l-3.884-3.879a5.358,5.358,0,0,0-7.563,0l-32.3,32.259a5.344,5.344,0,0,0,0,7.554ZM156.179,57.26l-1.226,1.225-9.5-9.494,1.226-1.225Zm41.088-41.039-1.226,1.225-9.506-9.494,1.227-1.225Zm-4.109,4.1-1.226,1.225-9.5-9.494,1.226-1.225Zm-4.108,4.1-1.227,1.225-9.5-9.494,1.226-1.225Zm-4.109,4.1-1.227,1.225-9.5-9.494,1.226-1.225Zm-4.109,4.1-1.227,1.225-9.5-9.494,1.227-1.225Zm-4.109,4.1L175.5,37.966l-9.506-9.494,1.227-1.225Zm-4.108,4.1-1.227,1.225-9.5-9.494,1.226-1.225Zm-4.109,4.1-1.227,1.225-9.5-9.494L159,35.454Zm-4.109,4.1-1.227,1.225-9.5-9.494,1.227-1.225Zm-4.109,4.1-1.226,1.225-9.506-9.494,1.227-1.225Z"/>
  <path class="cls-1" d="M102.2,104.617a15.992,15.992,0,1,1,.025-22.628A16.053,16.053,0,0,1,102.2,104.617Zm-21.4-21.378a14.259,14.259,0,1,0,20.2-.023A14.27,14.27,0,0,0,80.791,83.239Zm24.376,24.347a20.268,20.268,0,0,1-28.607.031l1.229-1.227A18.5,18.5,0,0,0,103.97,80.241l1.229-1.228A20.21,20.21,0,0,1,105.167,107.586Zm8.127,6.889-1.229,1.228-8.125-8.116,1.229-1.227Zm4.537-3.918-9.669,9.657-1.227-1.225,9.669-9.657ZM98.474,93.116l-1.736,0L96.75,82.749l1.736,0Zm-3.086,0-1.736,0,0.011-10.369,1.736,0Zm11.821-14.889L103.038,82.4l-1.227-1.225,4.171-4.166ZM79.8,105.607l-4.171,4.166L74.4,108.548l4.171-4.166Z"/>
  <path class="cls-1" d="M325.466,39.927L317,48.385a8.154,8.154,0,0,1-11.508-.041L284.844,27.722a8.13,8.13,0,0,1-.041-11.495L293.27,7.77a8.155,8.155,0,0,1,11.509.041l20.646,20.622A8.13,8.13,0,0,1,325.466,39.927ZM286.029,17.452a6.4,6.4,0,0,0,.033,9.053l20.646,20.622a6.422,6.422,0,0,0,9.064.032l8.467-8.458a6.4,6.4,0,0,0-.032-9.053L303.561,9.027a6.423,6.423,0,0,0-9.064-.032Zm37.829,10.632L305.141,46.779l-1.226-1.225,18.717-18.695Zm-2.381,9.372L314.525,44.4,313.3,43.175l6.952-6.944Z"/>
  <path id="Shape_9799_copy_3" data-name="Shape 9799 copy 3" class="cls-1" d="M51.108,152.1a0.623,0.623,0,0,0-.637.182,8.8,8.8,0,0,1-1.172.862,7.189,7.189,0,0,1-7.883-.477l-0.19-.169a0.962,0.962,0,0,0-.55-0.148,0.383,0.383,0,0,0-.319.091l-0.209.12a14.96,14.96,0,0,0-3.8,2.569c-2.519,2.385-5.416,3.312-7.914,2.52-0.919-.307-4.759-1.815-4.759-1.815-0.179.011-18.232-6.512-22.775-7.148a0.862,0.862,0,0,0-.637.181,0.851,0.851,0,0,0-.245.7c0.033,0.54.221,1.828,0.43,3.476a0.748,0.748,0,0,0,.762.677,5.036,5.036,0,0,1,4.323,2.346,4.842,4.842,0,0,1-1.755,6.6l-0.7.4a0.855,0.855,0,0,0-.333,1.03l0.282,0.488a3.78,3.78,0,0,0,2.415,1.772h0a19.147,19.147,0,0,1,9.875,8.265l4.435,7.681a0.761,0.761,0,0,0,1.1.3l2.783-1.607a0.759,0.759,0,0,0,.293-1.1l-7.741-13.407a27.876,27.876,0,0,1,7.847,2.826c6.895,3.747,11.511,4.992,13.517,3.648l0.626-.362a84.84,84.84,0,0,0,15.738-11.785,3.32,3.32,0,0,0,.709-3.109L54.5,157.5l-2.9-5.028A0.473,0.473,0,0,0,51.108,152.1ZM22.132,180l-1.392.8-4.032-6.983a21.169,21.169,0,0,0-7.966-7.69,24.892,24.892,0,0,1,4.938.036,1.766,1.766,0,0,0,.469.008L22.132,180h0Zm30.627-20.38a81.65,81.65,0,0,1-16.016,11.945h0l-0.07.04c-1.073.713-4.747,0.134-11.862-3.673a26.976,26.976,0,0,0-10.942-3.366,27.437,27.437,0,0,0-7.369.252,2.052,2.052,0,0,1-1.92-.755,6.455,6.455,0,0,0,2.341-8.8,6.433,6.433,0,0,0-4.946-3.1c-0.114-.679-0.147-1.218-0.209-1.648,4.714,1.1,16.749,5.228,21.427,6.9,0,0,3.869,1.4,4.788,1.705,3.088,1.01,6.553-.058,9.519-2.8a12.222,12.222,0,0,1,3.109-2.167,8.818,8.818,0,0,0,9.468.493l0.7-.4,2.3,3.98A2.221,2.221,0,0,1,52.759,159.62Z"/>
  <path id="Shape_9799_copy" data-name="Shape 9799 copy" class="cls-1" d="M328.861,143a7.189,7.189,0,0,1,0,10.13l-11.93,11.975a4.968,4.968,0,0,1-7.035,0l-3.058-3.07a5.01,5.01,0,0,1,0-7.06L318.768,143A7.126,7.126,0,0,1,328.861,143ZM311.117,163.88a3.239,3.239,0,0,0,4.588,0l11.931-11.974a5.416,5.416,0,1,0-7.645-7.674L308.06,156.206a3.268,3.268,0,0,0,0,4.605Zm-1.527-.309-29.013,29.3-1.229-1.223,29.014-29.3Zm-23.8,12.131,10.466,10.5-1.224,1.229-10.466-10.5Zm-2.05,3.93,8.519,8.55-1.224,1.228-8.519-8.55Zm-2.009,3.971,6.571,6.6-1.223,1.228-6.572-6.6Zm11.931-11.975,6.571,6.6-1.223,1.228-6.572-6.6Zm-3.957,2.017,8.519,8.55-1.223,1.228-8.519-8.55ZM309.276,154.3l8.307,8.328-1.224,1.228-8.306-8.328Z"/>
  <path class="cls-1" d="M117.907,256.809A96.018,96.018,0,0,1,102.179,269.5l-0.766.5L81.225,235.024l-16.6-7.089a4.014,4.014,0,0,1-1.732-5.963l3.252-4.728L78.4,205.006l4.677-3.191a4.022,4.022,0,0,1,5.971,1.73l7.1,16.582L131.164,240.3l-1.261,1.887A96.037,96.037,0,0,1,117.907,256.809ZM102,267.549a93.907,93.907,0,0,0,26.46-26.322l0.234-.351L94.773,221.34l-7.324-17.112a2.293,2.293,0,0,0-3.4-.985l-4.542,3.1-12.08,12.067-3.1,4.536a2.289,2.289,0,0,0,.987,3.4l17.132,7.315ZM77.609,216.515a7.065,7.065,0,0,1-9.972.014l1.227-1.226a5.322,5.322,0,0,0,7.532-7.522l1.227-1.226A7.045,7.045,0,0,1,77.609,216.515Zm18.459,4.83L82.444,234.952l-1.224-1.221,13.624-13.609Z"/>
</svg>
