<svg xmlns="http://www.w3.org/2000/svg" width="94" height="94" viewBox="0 0 94 94">
  <metadata><?xpacket begin="﻿" id="W5M0MpCehiHzreSzNTczkc9d"?>
<x:xmpmeta xmlns:x="adobe:ns:meta/" x:xmptk="Adobe XMP Core 5.6-c138 79.159824, 2016/09/14-01:09:01        ">
   <rdf:RDF xmlns:rdf="http://www.w3.org/1999/02/22-rdf-syntax-ns#">
      <rdf:Description rdf:about=""/>
   </rdf:RDF>
</x:xmpmeta>
                                                                                                    
                                                                                                    
                                                                                                    
                                                                                                    
                                                                                                    
                                                                                                    
                                                                                                    
                                                                                                    
                                                                                                    
                                                                                                    
                                                                                                    
                                                                                                    
                                                                                                    
                                                                                                    
                                                                                                    
                                                                                                    
                                                                                                    
                                                                                                    
                                                                                                    
                                                                                                    
                           
<?xpacket end="w"?></metadata>
<defs>
    <style>
      .cls-1 {
        fill: #fff;
      }

      .cls-2 {
        fill: #226d4f;
      }

      .cls-2, .cls-3, .cls-4 {
        fill-rule: evenodd;
      }

      .cls-3 {
        fill: #16d488;
      }

      .cls-4 {
        fill: #c1ecdb;
      }
    </style>
  </defs>
  <circle id="Ellipse_1_copy" data-name="Ellipse 1 copy" class="cls-1" cx="47" cy="47" r="47"/>
  <path id="Rounded_Rectangle_4_copy" data-name="Rounded Rectangle 4 copy" class="cls-2" d="M75,49h0V64H19V49h0a3,3,0,0,0,0-6h0V28H75V43h0A3,3,0,0,0,75,49Z"/>
  <path id="Rounded_Rectangle_4_copy_2" data-name="Rounded Rectangle 4 copy 2" class="cls-3" d="M73,62H21V50.578a4.993,4.993,0,0,0,0-9.156V30H73V41.422a4.993,4.993,0,0,0,0,9.156V62Z"/>
  <path id="Rounded_Rectangle_4_copy_3" data-name="Rounded Rectangle 4 copy 3" class="cls-4" d="M68.992,58H25.008V52.688a8.97,8.97,0,0,0,0-13.376V34H68.992v5.312a8.97,8.97,0,0,0,0,13.376V58Z"/>
  <path id="Rounded_Rectangle_4" data-name="Rounded Rectangle 4" class="cls-2" d="M32,46H42a1,1,0,0,1,0,2H32A1,1,0,0,1,32,46Zm0,4h6a1,1,0,0,1,0,2H32A1,1,0,0,1,32,50Z"/>
  <path id="Rectangle_1_copy_5" data-name="Rectangle 1 copy 5" class="cls-2" d="M57,35h2v2H57V35Zm0,4h2v2H57V39Zm0,4h2v2H57V43Zm0,4h2v2H57V47Zm0,4h2v2H57V51Zm0,4h2v2H57V55Zm0-24h2v2H57V31Zm0,28h2v2H57V59Z"/>
</svg>
