<svg xmlns="http://www.w3.org/2000/svg" width="440" height="200" viewBox="0 0 440 200">
  <metadata><?xpacket begin="﻿" id="W5M0MpCehiHzreSzNTczkc9d"?>
<x:xmpmeta xmlns:x="adobe:ns:meta/" x:xmptk="Adobe XMP Core 5.6-c138 79.159824, 2016/09/14-01:09:01        ">
   <rdf:RDF xmlns:rdf="http://www.w3.org/1999/02/22-rdf-syntax-ns#">
      <rdf:Description rdf:about=""/>
   </rdf:RDF>
</x:xmpmeta>
                                                                                                    
                                                                                                    
                                                                                                    
                                                                                                    
                                                                                                    
                                                                                                    
                                                                                                    
                                                                                                    
                                                                                                    
                                                                                                    
                                                                                                    
                                                                                                    
                                                                                                    
                                                                                                    
                                                                                                    
                                                                                                    
                                                                                                    
                                                                                                    
                                                                                                    
                                                                                                    
                           
<?xpacket end="w"?></metadata>
<defs>
    <style>
      .cls-1 {
        fill: #343835;
        fill-rule: evenodd;
      }
    </style>
  </defs>
  <path class="cls-1" d="M428.9,11.135H393.4a11.136,11.136,0,0,0,0,22.272h18.429a11.136,11.136,0,0,1,0,22.272H404.5a11.136,11.136,0,0,0,0,22.272h17.317a11.136,11.136,0,0,1,0,22.271h-81.22a11.136,11.136,0,0,0,0,22.272h37.285a11.117,11.117,0,0,1,11.1,11.136h0a11.117,11.117,0,0,1-11.1,11.136H326.064a11.117,11.117,0,0,0-11.1,11.136h0a11.117,11.117,0,0,0,11.1,11.136h74.674a11.136,11.136,0,0,1,0,22.271h-8.323A11.113,11.113,0,0,0,381.329,200H0V0H440A11.116,11.116,0,0,1,428.9,11.135Z"/>
</svg>
