<svg xmlns="http://www.w3.org/2000/svg" width="819" height="109" viewBox="0 0 819 109">
  <metadata><?xpacket begin="﻿" id="W5M0MpCehiHzreSzNTczkc9d"?>
<x:xmpmeta xmlns:x="adobe:ns:meta/" x:xmptk="Adobe XMP Core 5.6-c138 79.159824, 2016/09/14-01:09:01        ">
   <rdf:RDF xmlns:rdf="http://www.w3.org/1999/02/22-rdf-syntax-ns#">
      <rdf:Description rdf:about=""/>
   </rdf:RDF>
</x:xmpmeta>
                                                                                                    
                                                                                                    
                                                                                                    
                                                                                                    
                                                                                                    
                                                                                                    
                                                                                                    
                                                                                                    
                                                                                                    
                                                                                                    
                                                                                                    
                                                                                                    
                                                                                                    
                                                                                                    
                                                                                                    
                                                                                                    
                                                                                                    
                                                                                                    
                                                                                                    
                                                                                                    
                           
<?xpacket end="w"?></metadata>
<defs>
    <style>
      .cls-1 {
        fill: #16d488;
        fill-rule: evenodd;
      }
    </style>
  </defs>
  <path id="FASHION_в_DIgital" data-name="FASHION в DIgital" class="cls-1" d="M16.259,16.6h27.15V1.6H-0.241v105h16.5V63.25h21.3v-15h-21.3V16.6ZM86.01,1.6H61.86l-16.8,105H60.21l2.85-19.05H83.31l2.85,19.05h16.65ZM73.11,20.2l7.95,53.1H65.16Zm37.65,19.65a40.754,40.754,0,0,0,6,9.9,73,73,0,0,0,7.725,8.025q4.123,3.677,7.725,7.35a39.758,39.758,0,0,1,6,7.8,18.617,18.617,0,0,1,2.4,9.525q0,5.7-2.325,7.95a9.736,9.736,0,0,1-12.45,0q-2.328-2.25-2.325-7.95v-7.5h-15.6V81.4q0,12.751,6.225,19.575T132.51,107.8q12.15,0,18.375-6.825T157.11,81.4a32.727,32.727,0,0,0-2.4-13.05,40.94,40.94,0,0,0-6-9.9,73.715,73.715,0,0,0-7.725-8.025q-4.128-3.674-7.725-7.35a39.5,39.5,0,0,1-6-7.8,18.581,18.581,0,0,1-2.4-9.525q0-5.7,2.175-8.025a9.1,9.1,0,0,1,12.15,0q2.172,2.327,2.175,8.025V30.1h15.6V26.8q0-12.748-6.075-19.575T132.66,0.4q-12.15,0-18.225,6.825T108.36,26.8A32.658,32.658,0,0,0,110.76,39.85Zm72.3,21.75h18.75v45h16.8V1.6h-16.8v45h-18.75V1.6h-16.5v105h16.5v-45Zm47.548,45h16.5V1.6h-16.5v105Zm43.649-80.85q0-5.7,2.325-8.025a9.5,9.5,0,0,1,12.45,0q2.324,2.327,2.325,8.025v56.7q0,5.7-2.325,8.025a9.5,9.5,0,0,1-12.45,0q-2.328-2.324-2.325-8.025V25.75Zm-16.5,55.65q0,12.751,6.45,19.575t18.6,6.825q12.15,0,18.6-6.825t6.45-19.575V26.8q0-12.748-6.45-19.575T282.805,0.4q-12.15,0-18.6,6.825T257.755,26.8V81.4Zm96,25.2H370.7V1.6H356V64.45L339.054,1.6h-20.7v105H333.2V30.55ZM405.8,1.6v105h25.95q12.448,0,18.75-6.375T456.8,81.7V73.15a32.585,32.585,0,0,0-2.775-14.175A16.493,16.493,0,0,0,444.5,50.65a16.212,16.212,0,0,0,8.1-7.8q2.548-5.249,2.55-13.35V25.75q0-12.15-5.775-18.15T430.7,1.6H405.8Zm23.85,57.75q5.7,0,8.175,2.7T440.3,72.1v9.15q0,5.85-2.175,8.1t-6.375,2.25H422.3V59.35h7.35Zm0.6-42.75q4.349,0,6.375,2.55t2.025,8.25v5.85q0,6.3-2.625,8.7a10.382,10.382,0,0,1-7.275,2.4H422.3V16.6h7.95Zm59.7,90h26.1q12.449,0,18.525-6.6t6.075-19.35V27.55q0-12.748-6.075-19.35T516.05,1.6h-26.1v105Zm25.8-90a8.312,8.312,0,0,1,6.15,2.25q2.25,2.25,2.25,7.95V81.4q0,5.7-2.25,7.95a8.312,8.312,0,0,1-6.15,2.25h-9.3v-75h9.3Zm35.4,90h16.5V1.6h-16.5v105ZM604.4,63.1h7.5V82.45q0,5.7-2.325,7.95a9.736,9.736,0,0,1-12.45,0q-2.328-2.25-2.325-7.95V25.75q0-5.7,2.325-8.025a9.5,9.5,0,0,1,12.45,0q2.323,2.327,2.325,8.025V37h15.6V26.8q0-12.748-6.225-19.575T602.9,0.4q-12.15,0-18.375,6.825T578.3,26.8V81.4q0,12.751,6.225,19.575T602.9,107.8q12.15,0,18.375-6.825T627.5,81.4V48.1H604.4v15Zm33.75,43.5h16.5V1.6h-16.5v105Zm23.7-90H679.1v90h16.5v-90h17.25V1.6h-51v15Zm89.1-15h-24.15l-16.8,105h15.15l2.85-19.05h20.25l2.85,19.05h16.65Zm-12.9,18.6,7.95,53.1h-15.9Zm37.349,86.4h43.65v-15h-27.15V1.6h-16.5v105Z"/>
</svg>
