<svg xmlns="http://www.w3.org/2000/svg" width="137" height="17" viewBox="0 0 137 17">
  <metadata><?xpacket begin="﻿" id="W5M0MpCehiHzreSzNTczkc9d"?>
<x:xmpmeta xmlns:x="adobe:ns:meta/" x:xmptk="Adobe XMP Core 5.6-c138 79.159824, 2016/09/14-01:09:01        ">
   <rdf:RDF xmlns:rdf="http://www.w3.org/1999/02/22-rdf-syntax-ns#">
      <rdf:Description rdf:about=""/>
   </rdf:RDF>
</x:xmpmeta>
                                                                                                    
                                                                                                    
                                                                                                    
                                                                                                    
                                                                                                    
                                                                                                    
                                                                                                    
                                                                                                    
                                                                                                    
                                                                                                    
                                                                                                    
                                                                                                    
                                                                                                    
                                                                                                    
                                                                                                    
                                                                                                    
                                                                                                    
                                                                                                    
                                                                                                    
                                                                                                    
                           
<?xpacket end="w"?></metadata>
<defs>
    <style>
      .cls-1 {
        fill: #fff;
        fill-rule: evenodd;
      }
    </style>
  </defs>
  <path id="Бизнес-завтрак" class="cls-1" d="M0.76,16H3.5a5.306,5.306,0,0,0,3.667-1.064A4.473,4.473,0,0,0,8.322,11.5,5.713,5.713,0,0,0,7.79,8.78a2.934,2.934,0,0,0-1.6-1.368,8.178,8.178,0,0,0-2.812-.4H2.907V2.168H7.372V0.61H0.76V16Zm2.147-1.539V8.571H3.458a4.022,4.022,0,0,1,1.7.295,1.71,1.71,0,0,1,.874.912,4.55,4.55,0,0,1,.256,1.7,4.7,4.7,0,0,1-.295,1.881,1.6,1.6,0,0,1-.874.874,4.522,4.522,0,0,1-1.606.228H2.907Zm8,1.539h1.6L16.967,5.17V16h1.881V0.61H17.309l-4.5,10.659V0.61h-1.9V16Zm14.478,0.171q3.8,0,3.8-4.5a4.785,4.785,0,0,0-.58-2.5,2.9,2.9,0,0,0-1.624-1.3A2.774,2.774,0,0,0,28.595,6.7a3.981,3.981,0,0,0,.589-2.251,3.97,3.97,0,0,0-1.045-2.907A3.915,3.915,0,0,0,25.213.477a3.864,3.864,0,0,0-2.888,1.045A3.945,3.945,0,0,0,21.3,4.41V4.923h2.033V4.429a3.126,3.126,0,0,1,.532-1.7,1.677,1.677,0,0,1,1.425-.6,1.635,1.635,0,0,1,1.425.608,2.894,2.894,0,0,1,.437,1.71,2.83,2.83,0,0,1-.579,1.928,2.783,2.783,0,0,1-2,.731,4.905,4.905,0,0,1-.551.019V8.761a5.872,5.872,0,0,1,.589.019,2.583,2.583,0,0,1,1.976.836,3.293,3.293,0,0,1,.57,2.052,4.673,4.673,0,0,1-.37,2.109,1.432,1.432,0,0,1-1.4.7,1.444,1.444,0,0,1-1.321-.58,3.316,3.316,0,0,1-.409-1.662,4.976,4.976,0,0,1-.019-0.532H21.622v0.513a4.131,4.131,0,0,0,.959,2.917,3.633,3.633,0,0,0,2.8,1.035h0ZM31.9,16h2.147V8.8H38V16h2.147V0.61H38V7.26H34.048V0.61H31.9V16ZM43.32,16h6V14.461H45.467V8.818h3.1V7.3h-3.1V2.206h3.819V0.61H43.32V16ZM55.65,16.171a3.433,3.433,0,0,0,3.011-1.226,6.073,6.073,0,0,0,.864-3.524v-1.14H57.493v1.14a10.967,10.967,0,0,1-.1,1.71,1.649,1.649,0,0,1-.5.988,1.766,1.766,0,0,1-1.216.361,2.124,2.124,0,0,1-1.187-.285,1.619,1.619,0,0,1-.617-0.95,7,7,0,0,1-.19-1.843V5.3a9.209,9.209,0,0,1,.133-1.757,1.774,1.774,0,0,1,.561-1.026,1.946,1.946,0,0,1,1.3-.37,1.862,1.862,0,0,1,1.245.342A1.5,1.5,0,0,1,57.4,3.4a10.639,10.639,0,0,1,.095,1.634V6.12h2.033V4.9a5.185,5.185,0,0,0-.9-3.306A3.6,3.6,0,0,0,55.65.477a3.661,3.661,0,0,0-3.23,1.311,6.709,6.709,0,0,0-.912,3.838V11.06a6.562,6.562,0,0,0,.931,3.752,3.611,3.611,0,0,0,3.211,1.358h0Zm6.4-5.13H66.29V9.5H62.053v1.539Zm10.488,5.13q3.8,0,3.8-4.5a4.785,4.785,0,0,0-.579-2.5,2.9,2.9,0,0,0-1.624-1.3A2.774,2.774,0,0,0,75.752,6.7a3.981,3.981,0,0,0,.589-2.251A3.97,3.97,0,0,0,75.3,1.541,3.915,3.915,0,0,0,72.37.477a3.864,3.864,0,0,0-2.888,1.045A3.945,3.945,0,0,0,68.456,4.41V4.923h2.033V4.429a3.126,3.126,0,0,1,.532-1.7,1.677,1.677,0,0,1,1.425-.6,1.635,1.635,0,0,1,1.425.608,2.894,2.894,0,0,1,.437,1.71,2.83,2.83,0,0,1-.579,1.928,2.783,2.783,0,0,1-2,.731,4.906,4.906,0,0,1-.551.019V8.761a5.873,5.873,0,0,1,.589.019,2.583,2.583,0,0,1,1.976.836,3.293,3.293,0,0,1,.57,2.052,4.673,4.673,0,0,1-.37,2.109,1.765,1.765,0,0,1-2.717.123,3.315,3.315,0,0,1-.409-1.662,4.949,4.949,0,0,1-.019-0.532H68.779v0.513a4.13,4.13,0,0,0,.96,2.917,3.633,3.633,0,0,0,2.8,1.035h0ZM78.2,16h2.033l0.722-3.876h3.135L84.8,16h2.052L83.542,0.61H81.49Zm3.04-5.415L82.535,3.65l1.273,6.935H81.243ZM89.147,16h4.1a3.674,3.674,0,0,0,2.974-1.159,4.859,4.859,0,0,0,.978-3.23A4.731,4.731,0,0,0,96.576,9a3.113,3.113,0,0,0-1.995-1.282q2.2-.3,2.2-3.249a3.815,3.815,0,0,0-1.007-2.916,4.409,4.409,0,0,0-3.1-.94H89.147V16Zm2.147-8.968V2.206h0.513a9.688,9.688,0,0,1,1.862.133,1.416,1.416,0,0,1,.941.618,2.843,2.843,0,0,1,.314,1.51,3,3,0,0,1-.513,1.986,2.386,2.386,0,0,1-1.843.58H91.294Zm0,7.429V8.666h1.273a2.432,2.432,0,0,1,1.976.732,3.408,3.408,0,0,1,.608,2.214,5.252,5.252,0,0,1-.209,1.653,1.585,1.585,0,0,1-.731.9,3.029,3.029,0,0,1-1.472.295H91.294ZM101.5,16h2.147V2.206h2.7V0.61H98.685v1.6H101.5V16Zm6.764,0h2.147V8.837H112.1a3.647,3.647,0,0,0,2.812-1.045,4.14,4.14,0,0,0,.969-2.926,4.846,4.846,0,0,0-.9-3.173A3.565,3.565,0,0,0,112.08.61h-3.819V16Zm2.147-8.7V2.149h1.007A4.089,4.089,0,0,1,113,2.377a1.2,1.2,0,0,1,.675.779,6.343,6.343,0,0,1,.171,1.729,3.78,3.78,0,0,1-.228,1.482,1.336,1.336,0,0,1-.751.722A4.1,4.1,0,0,1,111.4,7.3h-0.988Zm6.631,8.7h2.033l0.722-3.876h3.135l0.7,3.876h2.052L122.378,0.61h-2.052Zm3.04-5.415,1.292-6.935,1.273,6.935h-2.565Zm7.9,5.415h2.147V8.495h0.817L134.062,16h2.147l-3.42-8.075,3.04-7.315h-2.147l-2.755,6.84h-0.8V0.61h-2.147V16Z"/>
</svg>
