<svg xmlns="http://www.w3.org/2000/svg" width="87" height="128" viewBox="0 0 87 128">
  <metadata><?xpacket begin="﻿" id="W5M0MpCehiHzreSzNTczkc9d"?>
<x:xmpmeta xmlns:x="adobe:ns:meta/" x:xmptk="Adobe XMP Core 5.6-c138 79.159824, 2016/09/14-01:09:01        ">
   <rdf:RDF xmlns:rdf="http://www.w3.org/1999/02/22-rdf-syntax-ns#">
      <rdf:Description rdf:about=""/>
   </rdf:RDF>
</x:xmpmeta>
                                                                                                    
                                                                                                    
                                                                                                    
                                                                                                    
                                                                                                    
                                                                                                    
                                                                                                    
                                                                                                    
                                                                                                    
                                                                                                    
                                                                                                    
                                                                                                    
                                                                                                    
                                                                                                    
                                                                                                    
                                                                                                    
                                                                                                    
                                                                                                    
                                                                                                    
                                                                                                    
                           
<?xpacket end="w"?></metadata>
<defs>
    <style>
      .cls-1, .cls-2 {
        fill: #226d4f;
      }

      .cls-1, .cls-4, .cls-5 {
        fill-rule: evenodd;
      }

      .cls-3, .cls-4 {
        fill: #16d488;
      }

      .cls-5 {
        fill: #c1ecdb;
      }
    </style>
  </defs>
  <path class="cls-1" d="M82.8,7.845l-0.072-.058-0.035-.027-0.036-.027-0.074-.054a10.921,10.921,0,0,0-6.446-2.155,10.471,10.471,0,0,0-2.7.355L64.756,8.05A39.368,39.368,0,0,1,54.949,9.3a38.951,38.951,0,0,1-13.732-2.51L40.542,6.54,40.2,6.412H39.659A62.141,62.141,0,0,0,19.4,2.995,59.636,59.636,0,0,0,7.349,4.221L4.86,4.695l-3.245.62-1.623.309V70.489l2.364-.448,4.727-.9,4.493-.85a40.986,40.986,0,0,1,7.8-.746,41.659,41.659,0,0,1,14.1,2.445L33.493,70l0.063,0.022,0.363,0.121A62.677,62.677,0,0,0,55.03,73.99a59.362,59.362,0,0,0,14.962-1.768l8.66-2.168A10.778,10.778,0,0,0,87,59.468V16.439A10.851,10.851,0,0,0,82.8,7.845Z"/>
  <rect id="Rounded_Rectangle_8" data-name="Rounded Rectangle 8" class="cls-2" width="8" height="128" rx="4" ry="4"/>
  <rect class="cls-3" x="2" y="2" width="4" height="124" rx="2" ry="2"/>
  <path class="cls-4" d="M78.165,68.113l-8.672,2.171a57.414,57.414,0,0,1-14.465,1.705,60.785,60.785,0,0,1-20.48-3.743l-0.323-.108-0.042-.013-0.041-.015a43.6,43.6,0,0,0-14.767-2.563,42.939,42.939,0,0,0-8.164.78l-4.492.852-4.727.9V7.279l3.245-.62,2.519-.48A57.639,57.639,0,0,1,19.4,4.995,60.129,60.129,0,0,1,39.324,8.413h0.52l0.675,0.253A40.892,40.892,0,0,0,54.947,11.3,41.311,41.311,0,0,0,65.234,9.991l8.706-2.18a8.513,8.513,0,0,1,2.191-.289A8.935,8.935,0,0,1,81.406,9.3L81.48,9.351l0.072,0.057A8.88,8.88,0,0,1,85,16.435V59.469A8.791,8.791,0,0,1,78.165,68.113Z"/>
  <path id="Shape_974_copy" data-name="Shape 974 copy" class="cls-5" d="M19.4,9a56.457,56.457,0,0,1,19.239,3.419h0.486a44.935,44.935,0,0,0,15.823,2.89A45.136,45.136,0,0,0,66.2,13.882l8.741-2.188a4.521,4.521,0,0,1,1.193-.161,4.963,4.963,0,0,1,2.935,1.011,4.9,4.9,0,0,1,1.943,3.89V59.469a4.826,4.826,0,0,1-3.764,4.741L68.5,66.4A53.892,53.892,0,0,1,55.028,67.98a56.775,56.775,0,0,1-19.182-3.526l-0.364-.122a47.792,47.792,0,0,0-16.107-2.8,46.721,46.721,0,0,0-8.9.85l-4.492.852V10.6l2.55-.486A53.452,53.452,0,0,1,19.4,9"/>
</svg>
