<svg xmlns="http://www.w3.org/2000/svg" width="56" height="71" viewBox="0 0 56 71">
  <metadata><?xpacket begin="﻿" id="W5M0MpCehiHzreSzNTczkc9d"?>
<x:xmpmeta xmlns:x="adobe:ns:meta/" x:xmptk="Adobe XMP Core 5.6-c138 79.159824, 2016/09/14-01:09:01        ">
   <rdf:RDF xmlns:rdf="http://www.w3.org/1999/02/22-rdf-syntax-ns#">
      <rdf:Description rdf:about=""/>
   </rdf:RDF>
</x:xmpmeta>
                                                                                                    
                                                                                                    
                                                                                                    
                                                                                                    
                                                                                                    
                                                                                                    
                                                                                                    
                                                                                                    
                                                                                                    
                                                                                                    
                                                                                                    
                                                                                                    
                                                                                                    
                                                                                                    
                                                                                                    
                                                                                                    
                                                                                                    
                                                                                                    
                                                                                                    
                                                                                                    
                           
<?xpacket end="w"?></metadata>
<defs>
    <style>
      .cls-1 {
        fill: #226d4f;
      }

      .cls-1, .cls-2 {
        fill-rule: evenodd;
      }

      .cls-2 {
        fill: #16d488;
      }
    </style>
  </defs>
  <path class="cls-1" d="M46.92,46.918A30.854,30.854,0,0,1,26,55.952V69h8a1,1,0,0,1,0,2H16a1,1,0,0,1,0-2h8V55.952A30.853,30.853,0,0,1,3.08,46.918l-0.707.707A1,1,0,0,1,.958,46.212l2.828-2.829A1,1,0,1,1,5.2,44.8l-0.707.708A29,29,0,0,0,45.506,4.493L44.8,5.2a1,1,0,0,1-1.414-1.415l2.828-2.828a1,1,0,0,1,1.414,1.414l-0.707.706A31,31,0,0,1,46.92,46.918ZM29.893,26.972"/>
  <path class="cls-2" d="M25,48c-0.709,0-1.407-.043-2.1-0.106h0A22.988,22.988,0,0,1,20,2.561h0c0.674-.15,1.361-0.263,2.056-0.352l0.016,0h0A22.991,22.991,0,1,1,25,48ZM5.2,18.059l8.379,5.221a10.075,10.075,0,0,0,3.742-1.164c-0.084-.329-0.564-1.478-3.28-4.195-1.67-1.67,3.359-9.1,4.209-9.951a8.338,8.338,0,0,0,1.306-3.233A21.011,21.011,0,0,0,5.2,18.059Zm24.695,8.913a16.217,16.217,0,0,1,3.2-6.391h0c0.869-1.006,2.9-3.353,5.724-3.353h0.038A3.958,3.958,0,0,1,41,17.85,2.649,2.649,0,0,0,42,18.242a3.312,3.312,0,0,0,2.538-.894,20.78,20.78,0,0,0-22.8-13.071c-0.353,1.717-1,4.075-2.054,5.13a24.9,24.9,0,0,0-4.009,7.32c3.281,3.323,3.674,4.733,3.679,5.507a1.747,1.747,0,0,1-.565,1.271c-1.03,1.029-3.289,1.558-5.269,1.826l-0.362.05L4.61,20.054a20.9,20.9,0,0,0,17.549,25.73,8,8,0,0,1-.307-1.486l0-.286a7.714,7.714,0,0,0-1.639-1.953,5.409,5.409,0,0,0-1.459-.875,3.512,3.512,0,0,1-1.735-1.346,5.964,5.964,0,0,1-.6-4.617,4.27,4.27,0,0,1,1.966-2.838c1.191-.635,2.3-0.194,3.367.233a7.177,7.177,0,0,0,3.967.662,4.515,4.515,0,0,0,2.5-.782c0.628-.522.754-1.113,1-2.517a26.344,26.344,0,0,1,.674-3.007M41.7,20.224a4.542,4.542,0,0,1-1.691-.629,2.016,2.016,0,0,0-1.166-.362H38.823c-1.911,0-3.466,1.8-4.214,2.662a14.411,14.411,0,0,0-2.8,5.641,24.365,24.365,0,0,0-.625,2.8c-0.268,1.506-.479,2.7-1.7,3.709a6.348,6.348,0,0,1-3.5,1.225,9.16,9.16,0,0,1-4.976-.785c-0.956-.383-1.346-0.508-1.689-0.326a2.432,2.432,0,0,0-.965,1.561,4.035,4.035,0,0,0,.329,3.015,1.611,1.611,0,0,0,.875.62,7.394,7.394,0,0,1,1.932,1.168,10.388,10.388,0,0,1,3.309,5.47c0.067,0,.131.009,0.2,0.009A20.947,20.947,0,0,0,45.206,19.34,4.83,4.83,0,0,1,41.7,20.224Z"/>
</svg>
