<svg 
 xmlns="http://www.w3.org/2000/svg"
 xmlns:xlink="http://www.w3.org/1999/xlink"
 width="138" height="90" viewBox="0 0 138 90">
<path fill-rule="evenodd"  opacity="0.051" fill="rgb(0, 0, 0)"
 d="M38.000,40.003 C40.762,40.003 43.000,42.241 43.000,45.002 C43.000,47.763 40.762,50.001 38.000,50.001 L16.000,50.001 C13.239,50.001 11.000,47.763 11.000,45.002 C11.000,42.241 13.239,40.003 16.000,40.003 L38.000,40.003 ZM133.000,70.000 L76.000,70.000 C73.192,70.000 71.000,72.236 71.000,74.998 C71.000,77.760 73.192,79.999 76.000,79.999 L120.000,79.999 C122.790,79.999 125.000,82.238 125.000,84.999 C125.000,87.760 122.790,89.999 120.000,89.999 L22.000,89.999 C19.211,89.999 17.000,87.760 17.000,84.999 C17.000,82.238 19.211,79.999 22.000,79.999 L56.000,79.999 C58.808,79.999 61.000,77.760 61.000,74.998 C61.000,72.236 58.808,70.000 56.000,70.000 L30.000,70.000 L24.000,70.000 L14.000,70.000 C11.211,70.000 9.000,67.760 9.000,64.999 C9.000,62.239 11.211,60.000 14.000,60.000 L70.000,60.000 C72.808,60.000 75.000,57.761 75.000,55.000 C75.000,52.238 72.808,49.999 70.000,49.999 L58.000,49.999 C55.211,49.999 53.000,47.760 53.000,44.998 C53.000,42.237 55.211,39.999 58.000,39.999 L67.000,39.999 C69.808,39.999 72.000,37.760 72.000,34.999 C72.000,32.237 69.808,30.000 67.000,30.000 L5.000,30.000 C2.211,30.000 0.000,27.761 0.000,24.999 C0.000,22.237 2.211,19.999 5.000,19.999 L27.000,19.999 C29.808,19.999 32.000,17.761 32.000,14.999 C32.000,12.238 29.808,9.998 27.000,9.998 L14.000,9.998 C11.211,9.998 9.000,7.760 9.000,4.999 C9.000,2.237 11.211,-0.002 14.000,-0.002 L60.000,-0.002 C62.790,-0.002 65.000,2.237 65.000,4.999 C65.000,7.760 62.790,9.998 60.000,9.998 L47.000,9.998 C44.192,9.998 42.000,12.238 42.000,14.999 C42.000,17.761 44.192,19.999 47.000,19.999 L109.000,19.999 C111.789,19.999 114.000,22.237 114.000,24.999 C114.000,27.761 111.789,30.000 109.000,30.000 L87.000,30.000 C84.192,30.000 82.000,32.237 82.000,34.999 C82.000,37.760 84.192,39.999 87.000,39.999 L122.000,39.999 C124.789,39.999 127.000,42.237 127.000,44.998 C127.000,47.760 124.789,49.999 122.000,49.999 L90.000,49.999 C87.192,49.999 85.000,52.238 85.000,55.000 C85.000,57.761 87.192,60.000 90.000,60.000 L133.000,60.000 C135.789,60.000 138.000,62.239 138.000,64.999 C138.000,67.760 135.789,70.000 133.000,70.000 ZM112.000,10.002 L80.000,10.002 C77.239,10.002 75.000,7.763 75.000,5.001 C75.000,2.240 77.239,0.002 80.000,0.002 L112.000,0.002 C114.762,0.002 117.000,2.240 117.000,5.001 C117.000,7.763 114.762,10.002 112.000,10.002 Z"/>
</svg>