<svg 
 xmlns="http://www.w3.org/2000/svg"
 xmlns:xlink="http://www.w3.org/1999/xlink"
 width="140" height="90" viewBox="0 0 140 90">
<path fill-rule="evenodd"  opacity="0.051" fill="rgb(0, 0, 0)"
 d="M135.000,49.996 L124.000,49.996 C121.238,49.996 119.000,47.758 119.000,44.996 C119.000,42.236 121.238,39.997 124.000,39.997 L135.000,39.997 C137.761,39.997 140.000,42.236 140.000,44.996 C140.000,47.758 137.761,49.996 135.000,49.996 ZM114.000,69.996 L70.000,69.996 C67.191,69.996 65.000,72.234 65.000,74.996 C65.000,77.758 67.191,79.997 70.000,79.997 L112.000,79.997 C114.789,79.997 117.000,82.234 117.000,84.996 C117.000,87.757 114.789,89.996 112.000,89.996 L28.000,89.996 C25.210,89.996 23.000,87.757 23.000,84.996 C23.000,82.234 25.210,79.997 28.000,79.997 L50.000,79.997 C52.808,79.997 55.000,77.758 55.000,74.996 C55.000,72.234 52.808,69.996 50.000,69.996 L5.000,69.996 C2.210,69.996 -0.000,67.757 -0.000,64.996 C-0.000,62.235 2.210,59.996 5.000,59.996 L36.000,59.996 C38.808,59.996 41.000,57.757 41.000,54.995 C41.000,52.234 38.808,49.996 36.000,49.996 L22.000,49.996 C19.210,49.996 17.000,47.758 17.000,44.996 C17.000,42.235 19.210,39.997 22.000,39.997 L63.000,39.997 C65.808,39.997 68.000,37.757 68.000,34.997 C68.000,32.234 65.808,29.996 63.000,29.996 L9.000,29.996 C6.210,29.996 4.000,27.758 4.000,24.995 C4.000,22.234 6.210,19.996 9.000,19.996 L39.000,19.996 C41.808,19.996 44.000,17.758 44.000,14.996 C44.000,12.235 41.808,9.995 39.000,9.995 L26.000,9.995 C23.210,9.995 21.000,7.757 21.000,4.996 C21.000,2.236 23.210,-0.005 26.000,-0.005 L61.000,-0.005 C63.789,-0.005 66.000,2.236 66.000,4.996 C66.000,7.757 63.789,9.995 61.000,9.995 L59.000,9.995 C56.191,9.995 54.000,12.235 54.000,14.996 C54.000,17.758 56.191,19.996 59.000,19.996 L109.000,19.996 C111.789,19.996 114.000,22.234 114.000,24.995 C114.000,27.758 111.789,29.996 109.000,29.996 L83.000,29.996 C80.191,29.996 78.000,32.234 78.000,34.997 C78.000,37.757 80.191,39.997 83.000,39.997 L104.000,39.997 C106.789,39.997 109.000,42.235 109.000,44.996 C109.000,47.758 106.789,49.996 104.000,49.996 L56.000,49.996 C53.192,49.996 51.000,52.234 51.000,54.995 C51.000,57.757 53.192,59.996 56.000,59.996 L114.000,59.996 C116.789,59.996 119.000,62.235 119.000,64.996 C119.000,67.757 116.789,69.996 114.000,69.996 ZM108.000,9.996 L81.000,9.996 C78.238,9.996 76.000,7.757 76.000,4.996 C76.000,2.236 78.238,-0.004 81.000,-0.004 L108.000,-0.004 C110.761,-0.004 113.000,2.236 113.000,4.996 C113.000,7.757 110.761,9.996 108.000,9.996 Z"/>
</svg>