<svg 
 xmlns="http://www.w3.org/2000/svg"
 xmlns:xlink="http://www.w3.org/1999/xlink"
 width="141" height="90" viewBox="0 0 141 90">
<path fill-rule="evenodd"  opacity="0.051" fill="rgb(0, 0, 0)"
 d="M73.000,60.000 L136.000,60.000 C138.789,60.000 141.000,62.239 141.000,64.999 C141.000,67.760 138.789,70.000 136.000,70.000 L89.000,70.000 C86.192,70.000 84.000,72.236 84.000,74.998 C84.000,77.760 86.192,79.999 89.000,79.999 L103.000,79.999 C105.790,79.999 108.000,82.238 108.000,84.999 C108.000,87.760 105.790,89.999 103.000,89.999 L65.000,89.999 C62.211,89.999 60.000,87.760 60.000,84.999 C60.000,82.238 62.211,79.999 65.000,79.999 L69.000,79.999 C71.808,79.999 74.000,77.760 74.000,74.998 C74.000,72.236 71.808,70.000 69.000,70.000 L43.000,70.000 C40.192,70.000 38.000,72.236 38.000,74.998 C38.000,77.760 40.192,79.999 43.000,79.999 L45.000,79.999 C47.790,79.999 50.000,82.238 50.000,84.999 C50.000,87.760 47.790,89.999 45.000,89.999 L11.000,89.999 C8.211,89.999 6.000,87.760 6.000,84.999 C6.000,82.238 8.211,79.999 11.000,79.999 L23.000,79.999 C25.808,79.999 28.000,77.760 28.000,74.998 C28.000,72.236 25.808,70.000 23.000,70.000 L16.000,70.000 C13.211,70.000 11.000,67.760 11.000,64.999 C11.000,62.239 13.211,60.000 16.000,60.000 L53.000,60.000 C55.808,60.000 58.000,57.761 58.000,55.000 C58.000,52.238 55.808,49.999 53.000,49.999 L5.000,49.999 C2.211,49.999 0.000,47.760 0.000,44.998 C0.000,42.237 2.211,39.999 5.000,39.999 L56.000,39.999 C58.808,39.999 61.000,37.760 61.000,34.999 C61.000,32.237 58.808,30.000 56.000,30.000 L18.000,30.000 C15.211,30.000 13.000,27.761 13.000,24.999 C13.000,22.237 15.211,19.999 18.000,19.999 L82.000,19.999 C84.808,19.999 87.000,17.761 87.000,14.999 C87.000,12.238 84.808,9.998 82.000,9.998 L77.000,9.998 C74.211,9.998 72.000,7.760 72.000,4.999 C72.000,2.237 74.211,-0.002 77.000,-0.002 L123.000,-0.002 C125.790,-0.002 128.000,2.237 128.000,4.999 C128.000,7.760 125.790,9.998 123.000,9.998 L102.000,9.998 C99.192,9.998 97.000,12.238 97.000,14.999 C97.000,17.761 99.192,19.999 102.000,19.999 L132.000,19.999 C134.789,19.999 137.000,22.237 137.000,24.999 C137.000,27.761 134.789,30.000 132.000,30.000 L76.000,30.000 C73.192,30.000 71.000,32.237 71.000,34.999 C71.000,37.760 73.192,39.999 76.000,39.999 L99.000,39.999 C101.789,39.999 104.000,42.237 104.000,44.998 C104.000,47.760 101.789,49.999 99.000,49.999 L73.000,49.999 C70.192,49.999 68.000,52.238 68.000,55.000 C68.000,57.761 70.192,60.000 73.000,60.000 ZM57.000,10.002 L15.000,10.002 C12.239,10.002 10.000,7.763 10.000,5.001 C10.000,2.240 12.239,0.002 15.000,0.002 L57.000,0.002 C59.762,0.002 62.000,2.240 62.000,5.001 C62.000,7.763 59.762,10.002 57.000,10.002 Z"/>
</svg>