<svg xmlns="http://www.w3.org/2000/svg" width="604" height="888" viewBox="0 0 604 888">
  <metadata><?xpacket begin="﻿" id="W5M0MpCehiHzreSzNTczkc9d"?>
<x:xmpmeta xmlns:x="adobe:ns:meta/" x:xmptk="Adobe XMP Core 5.6-c138 79.159824, 2016/09/14-01:09:01        ">
   <rdf:RDF xmlns:rdf="http://www.w3.org/1999/02/22-rdf-syntax-ns#">
      <rdf:Description rdf:about=""/>
   </rdf:RDF>
</x:xmpmeta>
                                                                                                    
                                                                                                    
                                                                                                    
                                                                                                    
                                                                                                    
                                                                                                    
                                                                                                    
                                                                                                    
                                                                                                    
                                                                                                    
                                                                                                    
                                                                                                    
                                                                                                    
                                                                                                    
                                                                                                    
                                                                                                    
                                                                                                    
                                                                                                    
                                                                                                    
                                                                                                    
                           
<?xpacket end="w"?></metadata>
<defs>
    <style>
      .cls-1 {
        fill: #fff;
        fill-rule: evenodd;
        opacity: 0.2;
      }
    </style>
  </defs>
  <path class="cls-1" d="M284.884,498.292a19.662,19.662,0,0,1-31.167-4.492H230.562v23.591a19.667,19.667,0,1,1-17.648-.883V493.8H171.353A15.652,15.652,0,0,1,155.7,478.147v-2l57.212,0V419.481h2a15.669,15.669,0,0,1,15.651,15.651v41.02h22.566A19.662,19.662,0,1,1,284.884,498.292ZM209.792,523.4a15.674,15.674,0,1,0,11.083-4.59A15.571,15.571,0,0,0,209.792,523.4Zm41.988-43.257H226.568V435.132a11.677,11.677,0,0,0-9.66-11.485v56.5H159.864a11.666,11.666,0,0,0,11.489,9.661h45.555v25.415a19.8,19.8,0,0,1,3.967-.4,19.588,19.588,0,0,1,5.694.847v-25.86h25.519a19.578,19.578,0,0,1-.777-5.422A19.834,19.834,0,0,1,251.78,480.146Zm19.2-11.435a15.674,15.674,0,1,0,15.673,15.674A15.571,15.571,0,0,0,270.977,468.711Zm-6.8,22.476a9.619,9.619,0,1,1,13.6,0A9.631,9.631,0,0,1,264.176,491.187Zm10.779-10.78a5.625,5.625,0,1,0,0,7.955A5.633,5.633,0,0,0,274.955,480.407Zm-56.728,8.141a5.21,5.21,0,1,1,7.368,0A5.214,5.214,0,0,1,218.227,488.548Zm4.543-4.543a1.216,1.216,0,1,0,0,1.719A1.217,1.217,0,0,0,222.77,484.005Zm4.907,43.68a9.619,9.619,0,1,1-13.6,0A9.629,9.629,0,0,1,227.677,527.685ZM216.9,538.464a5.625,5.625,0,1,0,0-7.956A5.632,5.632,0,0,0,216.9,538.464Z"/>
  <path id="Shape_9799_copy_6" data-name="Shape 9799 copy 6" class="cls-1" d="M444.546,598.329L419.152,623.8l1.411,1.415-40.207,40.326,3.526,3.536-38.8,38.91L319,681.818l38.8-38.911,3.526,3.536,40.206-40.326,1.41,1.415,16.223-16.272a17.936,17.936,0,0,1,25.389,0A5.019,5.019,0,0,1,444.546,598.329Zm-86.754,50.237-33.152,33.25,20.448,20.51,33.152-33.251-0.7-.708h0l-5.733-5.75Zm19.744,14.142,37.385-37.5-7.785-7.808-5.613-5.629-37.384,37.5Zm64.19-68.623a13.949,13.949,0,0,0-19.747,0L405.755,610.36l5.289,5.3,5.288,5.305L441.725,595.5A1,1,0,0,0,441.726,594.085Z"/>
  <path id="Shape_9799_copy_5" data-name="Shape 9799 copy 5" class="cls-1" d="M615.3,801.155l-78.671,78.672a18.018,18.018,0,0,1-25.451,0l-42.963-42.963a18.017,18.017,0,0,1,0-25.451L485.19,794.43l-0.626-.626a11.76,11.76,0,0,1,0-16.614l31.655-31.654a11.76,11.76,0,0,1,16.614,0l0.625,0.625,13.428-13.428a18.018,18.018,0,0,1,25.451,0L615.3,775.7A18.017,18.017,0,0,1,615.3,801.155ZM530,748.366a7.757,7.757,0,0,0-10.958,0l-31.655,31.655a7.757,7.757,0,0,0,0,10.958l0.626,0.626,42.611-42.611Zm82.468,30.166-42.963-42.963a14.011,14.011,0,0,0-19.795,0l-13.428,13.428,0.062,0.062L488.08,797.321l-0.062-.062L471.04,814.236a14.013,14.013,0,0,0,0,19.795L514.007,877a14.014,14.014,0,0,0,19.8,0l78.671-78.671A14.012,14.012,0,0,0,612.47,778.532ZM516.142,831.9a36.225,36.225,0,1,1,51.24.009A36.274,36.274,0,0,1,516.142,831.9Zm48.4-48.4a32.227,32.227,0,1,0,.008,45.583A32.269,32.269,0,0,0,564.545,783.494Zm-41.3,41.3a26.185,26.185,0,1,1,37.038.007A26.22,26.22,0,0,1,523.242,824.8Zm34.2-34.2a22.187,22.187,0,1,0,.006,31.383A22.214,22.214,0,0,0,557.445,790.593Z"/>
  <path id="Shape_9799_copy_4" data-name="Shape 9799 copy 4" class="cls-1" d="M362.2,425.255l-16.8-11.427,8.89-8.89-69.325-69.325L392.011,228.569l69.325,69.325,8.89-8.89,11.426,16.8Zm29.81-191.03-101.39,101.39,66.5,66.5,50.566-50.566,50.824-50.824Zm77.625,61.024L351.646,413.24l10.068,6.847,114.77-114.77Zm-126.848-.658a5.8,5.8,0,1,1,8.2,0A5.806,5.806,0,0,1,342.789,294.591Zm5.372-5.372a1.8,1.8,0,1,0,0,2.546A1.8,1.8,0,0,0,348.161,289.219Z"/>
  <path class="cls-1" d="M290.882,142.958l-20.506-20.506L263.73,129.1l20.5,20.506-2.828,2.829L260.9,131.927l-6.647,6.647L274.76,159.08l-2.828,2.828L251.426,141.4l-6.647,6.647,20.506,20.506-2.829,2.829L241.95,150.878l-6.646,6.647,20.506,20.506-2.829,2.828-20.506-20.506L225.828,167l20.506,20.506-2.828,2.828L223,169.828l-6.647,6.647,20.506,20.506-2.828,2.828L213.525,179.3l-6.647,6.647,20.506,20.506-2.828,2.829L204.05,188.779l-6.647,6.647,20.506,20.506-2.829,2.828-20.506-20.506-6.647,6.647,20.506,20.506-2.828,2.828L185.1,207.729l-6.647,6.647,20.506,20.506-2.828,2.829L174.21,215.79h0l-10.371-10.371a16.351,16.351,0,0,1,0-23.1l74.481-74.481a16.352,16.352,0,0,1,23.1,0l10.37,10.37h0l21.921,21.92Zm-32.291-32.291a12.347,12.347,0,0,0-17.442,0l-74.482,74.482a12.347,12.347,0,0,0,0,17.442l8.957,8.956,91.924-91.923Z"/>
  <path class="cls-1" d="M411.08,56.995l-2.829-2.828,9.709-9.709L402.721,29.219a46.7,46.7,0,0,1-63.069.07l-3.6,3.6-2.828-2.828,9.619-9.619,2.828,2.829-3.184,3.184a42.7,42.7,0,0,0,58.858-1.444,42.7,42.7,0,0,0,1.445-58.858l-3.528,3.528-2.828-2.829,9.618-9.619,2.829,2.828-3.256,3.256a46.7,46.7,0,0,1-.07,63.069l15.238,15.239,9.754-9.754,2.829,2.828ZM397.319,20.982a36.986,36.986,0,0,1-52.246.057,36.984,36.984,0,0,1,.058-52.244,36.985,36.985,0,0,1,52.246-.058A36.985,36.985,0,0,1,397.319,20.982Zm-49.36-49.359a32.975,32.975,0,0,0-.051,46.582,32.975,32.975,0,0,0,46.582-.052,32.975,32.975,0,0,0,.052-46.581A32.976,32.976,0,0,0,347.959-28.377Zm36.776,22.81,0.027-23.941,4,0L388.739-5.571Zm-7.117.008L377.644-29.5l4,0L381.622-5.564Z"/>
  <path class="cls-1" d="M589.351,194.863L569.825,214.39a18.788,18.788,0,0,1-26.54-.094l-47.612-47.613a18.787,18.787,0,0,1-.1-26.539l19.527-19.527a18.789,18.789,0,0,1,26.54.094l47.612,47.613A18.787,18.787,0,0,1,589.351,194.863ZM538.836,123.52a14.8,14.8,0,0,0-20.9-.075l-19.527,19.527a14.8,14.8,0,0,0,.074,20.9l42.576,42.576L581.412,166.1Zm47.613,47.612-2.209-2.208-40.355,40.355,2.208,2.208a14.8,14.8,0,0,0,20.9.075l19.527-19.527A14.8,14.8,0,0,0,586.449,171.132Zm-25.157,31.23,16.031-16.032,2.828,2.829L564.12,205.19Z"/>
  <path id="Shape_9799_copy_3" data-name="Shape 9799 copy 3" class="cls-1" d="M118.079,615.477a1.434,1.434,0,0,0-1.469.419,20.428,20.428,0,0,1-2.7,1.992,16.566,16.566,0,0,1-18.178-1.1L95.29,616.4a2.227,2.227,0,0,0-1.267-.342,0.888,0.888,0,0,0-.735.21l-0.481.277a34.586,34.586,0,0,0-8.774,5.931c-5.809,5.507-12.489,7.649-18.251,5.819-2.121-.709-10.974-4.19-10.974-4.19-0.414.024-42.046-15.035-52.521-16.5a1.989,1.989,0,0,0-1.47.419,1.965,1.965,0,0,0-.565,1.617c0.077,1.245.509,4.22,0.992,8.025A1.725,1.725,0,0,0,3,619.219a11.612,11.612,0,0,1,9.969,5.416,11.188,11.188,0,0,1-4.048,15.237l-1.6.927a1.977,1.977,0,0,0-.768,2.379L7.2,644.306a8.718,8.718,0,0,0,5.568,4.09h0a44.173,44.173,0,0,1,22.772,19.082l10.228,17.734a1.752,1.752,0,0,0,2.534.684l6.418-3.709a1.756,1.756,0,0,0,.675-2.539L37.544,648.7a64.177,64.177,0,0,1,18.1,6.522c15.9,8.652,26.545,11.528,31.172,8.423l1.444-.834c4.974-2.875,21.636-12.934,36.293-27.209a7.672,7.672,0,0,0,1.636-7.179l-0.279-.484-6.694-11.607A1.09,1.09,0,0,0,118.079,615.477ZM51.257,679.89l-3.209,1.855-9.3-16.122A48.85,48.85,0,0,0,20.38,647.867a57.534,57.534,0,0,1,11.386.083,4.073,4.073,0,0,0,1.081.02l18.41,31.92h0Zm70.63-47.054a188.421,188.421,0,0,1-36.935,27.581h0l-0.16.092c-2.474,1.645-10.947.308-27.354-8.48A62.093,62.093,0,0,0,32.2,644.257a63.205,63.205,0,0,0-16.995.58,4.729,4.729,0,0,1-4.427-1.741,14.917,14.917,0,0,0,5.4-20.316,14.835,14.835,0,0,0-11.406-7.165c-0.263-1.567-.339-2.813-0.483-3.8C15.163,614.34,42.915,623.88,53.7,627.748c0,0,8.921,3.227,11.042,3.937,7.122,2.332,15.111-.136,21.951-6.453a28.111,28.111,0,0,1,7.169-5,20.315,20.315,0,0,0,21.836,1.138l1.6-.928,5.3,9.189S122.757,632.119,121.887,632.836Z"/>
  <path id="Shape_9799_copy" data-name="Shape 9799 copy" class="cls-1" d="M597.177,456.238l-27.514,27.647a11.445,11.445,0,0,1-16.223,0l-2.111-2.122-26.12,26.412,5.963,5.992-2.822,2.836-5.954-5.983-4.044,4.089,8.186,8.226-2.821,2.836-8.178-8.218-4.044,4.089L522,532.6l-2.822,2.836-10.5-10.546-4.044,4.089,8.143,8.183L509.96,540l-8.135-8.173-4.044,4.089,5.877,5.9-2.822,2.836-5.868-5.9L485.832,548,483,545.175l9.148-9.251-6.467-6.5,2.822-2.836,6.458,6.489L499,528.99l-8.69-8.733,2.822-2.836,8.681,8.724,4.044-4.089-10.82-10.873,2.822-2.836,10.811,10.865,4.044-4.089-8.647-8.69,2.822-2.835,8.638,8.68,4.044-4.089-6.381-6.412,2.822-2.836,6.372,6.4,26.12-26.412-2.12-2.13a11.58,11.58,0,0,1,0-16.3l27.514-27.648a16.422,16.422,0,0,1,23.277,0A16.615,16.615,0,0,1,597.177,456.238ZM549.21,473.966l7.052,7.087a7.463,7.463,0,0,0,10.58,0l0.776-.779-17.64-17.708-0.766.771A7.55,7.55,0,0,0,549.21,473.966Zm45.15-38.283a12.44,12.44,0,0,0-17.634,0L552.8,459.729l17.64,17.707L594.357,453.4A12.588,12.588,0,0,0,594.36,435.683Z"/>
  <path class="cls-1" d="M299.789,823.467a220.706,220.706,0,0,1-63.933,63.067l-1.767,1.144-46.556-80.744-38.286-16.367a9.274,9.274,0,0,1-4-13.769l7.5-10.917,28.256-28.256,10.785-7.367a9.272,9.272,0,0,1,13.768,3.994l16.367,38.286,80.77,46.571ZM178.1,746.18L161.175,763.1A12.278,12.278,0,0,0,178.1,746.18Zm23.789-10.35a5.285,5.285,0,0,0-7.846-2.276l-10.475,7.158-2.591,2.59A16.27,16.27,0,0,1,158.3,765.98l-2.591,2.591-7.157,10.474a5.285,5.285,0,0,0,2.276,7.846l37.655,16.1,29.5-29.5Zm18.791,40.6L191.43,805.683l44.02,76.347a216.705,216.705,0,0,0,61.018-60.774l0.54-.81Z"/>
</svg>
