<svg xmlns="http://www.w3.org/2000/svg" width="1600" height="898" viewBox="0 0 1600 898">
  <metadata><?xpacket begin="﻿" id="W5M0MpCehiHzreSzNTczkc9d"?>
<x:xmpmeta xmlns:x="adobe:ns:meta/" x:xmptk="Adobe XMP Core 5.6-c138 79.159824, 2016/09/14-01:09:01        ">
   <rdf:RDF xmlns:rdf="http://www.w3.org/1999/02/22-rdf-syntax-ns#">
      <rdf:Description rdf:about=""/>
   </rdf:RDF>
</x:xmpmeta>
                                                                                                    
                                                                                                    
                                                                                                    
                                                                                                    
                                                                                                    
                                                                                                    
                                                                                                    
                                                                                                    
                                                                                                    
                                                                                                    
                                                                                                    
                                                                                                    
                                                                                                    
                                                                                                    
                                                                                                    
                                                                                                    
                                                                                                    
                                                                                                    
                                                                                                    
                                                                                                    
                           
<?xpacket end="w"?></metadata>
<defs>
    <style>
      .cls-1 {
        fill: #fff;
        opacity: 0.2;
      }

      .cls-1, .cls-2 {
        fill-rule: evenodd;
      }

      .cls-2 {
        fill: #343835;
      }
    </style>
  </defs>
  <path class="cls-1" d="M1280.88,498.292a19.666,19.666,0,1,1-13.9-33.575h0A19.668,19.668,0,0,1,1280.88,498.292ZM1255.89,473.3a15.677,15.677,0,1,0,11.09-4.59h0A15.582,15.582,0,0,0,1255.89,473.3Zm-25.11,75.092a19.665,19.665,0,0,1-33.57-13.907h0A19.665,19.665,0,1,1,1230.78,548.393Zm-29.58-13.907a15.671,15.671,0,1,0,4.59-11.083,15.692,15.692,0,0,0-4.59,11.083h0Zm11.71-15.6h-4V493.8h-41.56a15.663,15.663,0,0,1-15.65-15.652v-2l57.21,0V419.481h2a15.669,15.669,0,0,1,15.65,15.651v41.02h24.54v3.994h-28.53V435.132a11.676,11.676,0,0,0-9.66-11.485v56.5h-57.05a11.677,11.677,0,0,0,11.49,9.661h45.56v29.077Zm13.65,0h-3.99V489.806h28.53V493.8h-24.54v25.085Zm-4.97-30.337a5.207,5.207,0,1,1,0-7.368A5.205,5.205,0,0,1,1221.59,488.548Zm-4.54-4.543a1.216,1.216,0,1,0,1.72,0A1.224,1.224,0,0,0,1217.05,484.005Zm56.73,7.181a9.622,9.622,0,1,1,0-13.6A9.626,9.626,0,0,1,1273.78,491.186ZM1263,480.407a5.623,5.623,0,1,0,7.95,0A5.637,5.637,0,0,0,1263,480.407Zm-39.32,60.881a9.622,9.622,0,1,1,0-13.6A9.639,9.639,0,0,1,1223.68,541.288Zm-10.78-10.78a5.623,5.623,0,1,0,7.95,0A5.62,5.62,0,0,0,1212.9,530.508Z"/>
  <path id="Shape_9799_copy_6" data-name="Shape 9799 copy 6" class="cls-1" d="M1341.09,707.984L1315,681.818l38.79-38.911,26.09,26.167Zm-20.45-26.168,20.45,20.51,33.15-33.251-20.45-20.509Zm52.9-13.449-19.04-19.094,43.02-43.156,19.04,19.1Zm-13.4-19.095,13.4,13.436,37.38-37.5-13.4-13.437Zm52.19-22.645-16.22-16.266,19.05-19.1a17.937,17.937,0,0,1,25.39,0,5.027,5.027,0,0,1,0,7.074Zm-10.57-16.267,10.57,10.609,25.4-25.469a1.021,1.021,0,0,0,0-1.415,13.952,13.952,0,0,0-19.75,0Z"/>
  <path id="Shape_9799_copy_5" data-name="Shape 9799 copy 5" class="cls-1" d="M1611.3,801.155l-78.67,78.672a18.016,18.016,0,0,1-25.45,0l-42.96-42.963a18.02,18.02,0,0,1-.01-25.451l78.67-78.672a18.016,18.016,0,0,1,25.45,0L1611.3,775.7A18.011,18.011,0,0,1,1611.3,801.155Zm-144.26,13.081a14.018,14.018,0,0,0,0,19.795L1510.01,877a14.007,14.007,0,0,0,19.79,0l78.67-78.671a14.008,14.008,0,0,0,0-19.795l-42.96-42.963a14.017,14.017,0,0,0-19.8,0Zm96.34,17.67a36.239,36.239,0,1,1-.01-51.24A36.273,36.273,0,0,1,1563.38,831.906Zm-48.42-48.421a32.238,32.238,0,1,0,45.58.009A32.275,32.275,0,0,0,1514.96,783.485Zm41.32,41.319a26.193,26.193,0,1,1-.01-37.038A26.223,26.223,0,0,1,1556.28,824.8Zm-34.22-34.216a22.2,22.2,0,1,0,31.39,0A22.219,22.219,0,0,0,1522.06,790.588Zm10.29-41.533-48.27,48.266-3.52-3.517a11.762,11.762,0,0,1,0-16.614l31.66-31.654a11.755,11.755,0,0,1,16.61,0Zm-48.27,42.61,42.61-42.611-0.69-.688a7.759,7.759,0,0,0-10.96,0l-31.65,31.655a7.759,7.759,0,0,0,0,10.958Z"/>
  <path id="Shape_9799_copy_4" data-name="Shape 9799 copy 4" class="cls-1" d="M1460.16,300.722L1353.12,407.767l-72.15-72.154,107.04-107.044ZM1353.12,402.111l101.39-101.39-66.5-66.5-101.39,101.39Zm124.53-96.306L1358.2,425.255l-16.8-11.427L1466.23,289ZM1357.71,420.087l114.77-114.77-6.84-10.068L1347.65,413.24Zm-10.72-125.494a5.8,5.8,0,1,1,0-8.2A5.8,5.8,0,0,1,1346.99,294.593Zm-5.37-5.374a1.8,1.8,0,1,0,2.54,0A1.8,1.8,0,0,0,1341.62,289.219Z"/>
  <path class="cls-1" d="M1269.2,119.624l-97.58,97.58-11.78-11.785a16.349,16.349,0,0,1,0-23.1l74.48-74.481a16.352,16.352,0,0,1,23.1,0Zm-97.58,91.923,91.93-91.923-8.96-8.957a12.344,12.344,0,0,0-17.44,0l-74.48,74.482a12.345,12.345,0,0,0,0,17.442Zm23.34,23.335-2.83,2.829-21.92-21.921,2.83-2.829Zm94.75-94.753-2.83,2.829-21.92-21.92,2.83-2.829Zm-9.47,9.476-2.83,2.829-21.92-21.921,2.83-2.829Zm-9.48,9.475-2.83,2.828-21.92-21.92,2.83-2.828Zm-9.48,9.475-2.82,2.829-21.92-21.92,2.82-2.829Zm-9.47,9.476-2.83,2.828-21.92-21.921,2.83-2.828Zm-9.48,9.475-2.82,2.828-21.92-21.92,2.82-2.828Zm-9.47,9.475-2.83,2.828-21.92-21.92,2.83-2.828Zm-9.48,9.475-2.82,2.829-21.92-21.921,2.82-2.829Zm-9.47,9.476-2.83,2.828-21.92-21.92,2.83-2.829Zm-9.48,9.475-2.82,2.828-21.93-21.92,2.83-2.828Z"/>
  <path class="cls-1" d="M1393.32,20.982a36.991,36.991,0,0,1-52.25.057,36.991,36.991,0,0,1,.06-52.244,36.99,36.99,0,0,1,52.25-.058A36.983,36.983,0,0,1,1393.32,20.982Zm-49.36-49.359a32.971,32.971,0,0,0-.05,46.582,32.973,32.973,0,0,0,46.58-.052,32.971,32.971,0,0,0,.05-46.581A32.973,32.973,0,0,0,1343.96-28.377Zm56.21,56.214a46.7,46.7,0,0,1-65.97.073l2.84-2.835a42.7,42.7,0,0,0,60.31-.066,42.7,42.7,0,0,0,.06-60.308l2.84-2.835A46.7,46.7,0,0,1,1400.17,27.837Zm18.75,15.907-2.84,2.835-18.74-18.739,2.84-2.835Zm10.46-9.047-22.3,22.3-2.83-2.828,22.3-22.3ZM1384.74-5.571l-4,0,0.02-23.941,4.01,0Zm-7.12.008-4,0,0.02-23.941,4.01,0Zm27.26-34.377-9.62,9.619-2.83-2.829,9.62-9.619Zm-63.21,63.21-9.62,9.619-2.83-2.828,9.62-9.619Z"/>
  <path class="cls-1" d="M1585.35,194.863l-19.53,19.527a18.788,18.788,0,0,1-26.54-.094l-47.61-47.613a18.791,18.791,0,0,1-.09-26.539l19.53-19.527a18.777,18.777,0,0,1,26.53.094l47.62,47.613A18.791,18.791,0,0,1,1585.35,194.863Zm-90.94-51.891a14.794,14.794,0,0,0,.07,20.9l47.61,47.612a14.806,14.806,0,0,0,20.91.075l19.52-19.527a14.794,14.794,0,0,0-.07-20.9l-47.61-47.612a14.806,14.806,0,0,0-20.91-.075Zm87.23,24.547-43.16,43.164-2.83-2.828,43.17-43.164Zm-5.49,21.64-16.03,16.031-2.83-2.828,16.03-16.032Z"/>
  <path id="Shape_9799_copy_3" data-name="Shape 9799 copy 3" class="cls-1" d="M1114.08,615.477a1.435,1.435,0,0,0-1.47.419,20.542,20.542,0,0,1-2.7,1.992,16.568,16.568,0,0,1-18.18-1.1l-0.44-.391a2.23,2.23,0,0,0-1.27-.342,0.88,0.88,0,0,0-.73.21l-0.48.277a34.561,34.561,0,0,0-8.78,5.931c-5.81,5.507-12.49,7.649-18.25,5.819-2.12-.709-10.97-4.19-10.97-4.19-0.42.024-42.05-15.035-52.523-16.5a1.991,1.991,0,0,0-1.47.419,1.968,1.968,0,0,0-.565,1.617c0.077,1.245.509,4.22,0.992,8.025A1.724,1.724,0,0,0,999,619.219a11.606,11.606,0,0,1,9.969,5.416,11.183,11.183,0,0,1-4.05,15.237l-1.6.927a1.986,1.986,0,0,0-.77,2.379c0.19,0.322.47,0.8,0.65,1.128a8.719,8.719,0,0,0,5.57,4.09h0a44.168,44.168,0,0,1,22.77,19.082l10.23,17.734a1.749,1.749,0,0,0,2.53.684l6.42-3.709a1.765,1.765,0,0,0,.68-2.539L1033.54,648.7a64.156,64.156,0,0,1,18.1,6.522c15.9,8.652,26.54,11.528,31.17,8.423,0.16-.092.64-0.37,1.45-0.834,4.97-2.875,21.63-12.934,36.29-27.209a7.7,7.7,0,0,0,1.64-7.179c-0.1-.161-0.19-0.323-0.28-0.484l-6.7-11.607A1.08,1.08,0,0,0,1114.08,615.477Zm-66.82,64.413-3.21,1.855-9.3-16.122a48.82,48.82,0,0,0-18.37-17.756,57.57,57.57,0,0,1,11.39.083,4.051,4.051,0,0,0,1.08.02l18.41,31.92h0Zm70.63-47.054a188.352,188.352,0,0,1-36.94,27.581h0l-0.16.092c-2.47,1.645-10.95.308-27.35-8.48a62.1,62.1,0,0,0-25.24-7.772,63.175,63.175,0,0,0-16.99.58,4.739,4.739,0,0,1-4.43-1.741,14.727,14.727,0,0,0-6.01-27.481c-0.26-1.567-.34-2.813-0.48-3.8,10.87,2.529,38.62,12.069,49.41,15.937,0,0,8.92,3.227,11.04,3.937,7.13,2.332,15.12-.136,21.96-6.453a27.972,27.972,0,0,1,7.16-5,20.323,20.323,0,0,0,21.84,1.138l1.6-.928,5.3,9.189S1118.76,632.119,1117.89,632.836Z"/>
  <path id="Shape_9799_copy" data-name="Shape 9799 copy" class="cls-1" d="M1593.18,432.848a16.61,16.61,0,0,1,0,23.39l-27.52,27.647a11.441,11.441,0,0,1-16.22,0l-7.05-7.087a11.585,11.585,0,0,1,0-16.3l27.51-27.648A16.426,16.426,0,0,1,1593.18,432.848Zm-40.92,48.2a7.463,7.463,0,0,0,10.58,0l27.52-27.648a12.591,12.591,0,0,0,0-17.72,12.435,12.435,0,0,0-17.63,0l-27.52,27.648a7.546,7.546,0,0,0,0,10.631Zm-3.52-.714L1481.83,548l-2.83-2.822,66.91-67.659Zm-54.88,28.008L1518,532.6l-2.82,2.836-24.14-24.254Zm-4.72,9.074,19.64,19.742L1505.96,540l-19.65-19.741Zm-4.64,9.169,15.16,15.229-2.82,2.836-15.16-15.229Zm27.52-27.649,15.15,15.23-2.82,2.836-15.16-15.23Zm-9.13,4.657,19.65,19.741-2.82,2.836-19.65-19.742Zm45.13-44.656,19.15,19.229-2.82,2.836-19.16-19.23Z"/>
  <path class="cls-1" d="M1268.13,857.232a221.934,221.934,0,0,1-36.27,29.3l-1.77,1.144-46.56-80.744-38.28-16.367a9.282,9.282,0,0,1-4-13.769l7.5-10.917,28.26-28.256,10.78-7.367a9.273,9.273,0,0,1,13.77,3.994l16.37,38.286,80.77,46.571-2.91,4.358A221.789,221.789,0,0,1,1268.13,857.232Zm-36.68,24.8a216.765,216.765,0,0,0,61.02-60.774l0.54-.81-78.23-45.107-16.89-39.509a5.289,5.289,0,0,0-7.85-2.276l-10.47,7.158-27.86,27.859-7.16,10.474a5.28,5.28,0,0,0,2.27,7.846l39.51,16.89ZM1175.19,764.2a16.273,16.273,0,0,1-22.99.031l2.83-2.83a12.282,12.282,0,0,0,17.37-17.368l2.83-2.83A16.28,16.28,0,0,1,1175.19,764.2Zm42.57,11.149-31.42,31.419-2.82-2.821,31.42-31.419Z"/>
  <path class="cls-2" d="M1166.92,50h-160a50,50,0,1,0,0,100h83.06a50,50,0,1,1,0,100h-33.07a50,50,0,1,0,0,100h78.05a50,50,0,1,1,0,100H768.89a50,50,0,1,0,0,100H936.937a50.008,50.008,0,0,1,50.017,50h0a50.009,50.009,0,0,1-50.017,50H703.409a50.008,50.008,0,0,0-50.017,50h0a50.008,50.008,0,0,0,50.017,50H1039.98a50,50,0,1,1,0,100h-37.52A50,50,0,0,0,952.5,898H0V0H1216.94A50.013,50.013,0,0,1,1166.92,50Z"/>
</svg>
