<svg xmlns="http://www.w3.org/2000/svg" width="98" height="98" viewBox="0 0 98 98">
  <metadata><?xpacket begin="﻿" id="W5M0MpCehiHzreSzNTczkc9d"?>
<x:xmpmeta xmlns:x="adobe:ns:meta/" x:xmptk="Adobe XMP Core 5.6-c138 79.159824, 2016/09/14-01:09:01        ">
   <rdf:RDF xmlns:rdf="http://www.w3.org/1999/02/22-rdf-syntax-ns#">
      <rdf:Description rdf:about=""/>
   </rdf:RDF>
</x:xmpmeta>
                                                                                                    
                                                                                                    
                                                                                                    
                                                                                                    
                                                                                                    
                                                                                                    
                                                                                                    
                                                                                                    
                                                                                                    
                                                                                                    
                                                                                                    
                                                                                                    
                                                                                                    
                                                                                                    
                                                                                                    
                                                                                                    
                                                                                                    
                                                                                                    
                                                                                                    
                                                                                                    
                           
<?xpacket end="w"?></metadata>
<defs>
    <style>
      .cls-1, .cls-4 {
        fill: #226d4f;
      }

      .cls-2 {
        fill: #c1ecdb;
      }

      .cls-3, .cls-5 {
        fill: #16d488;
      }

      .cls-4, .cls-5 {
        fill-rule: evenodd;
      }
    </style>
  </defs>
  <circle class="cls-1" cx="38" cy="60" r="38"/>
  <circle id="Ellipse_9_copy" data-name="Ellipse 9 copy" class="cls-2" cx="38" cy="60" r="36"/>
  <circle id="Ellipse_9_copy_2" data-name="Ellipse 9 copy 2" class="cls-1" cx="37.5" cy="59.5" r="30.5"/>
  <circle id="Ellipse_9_copy_4" data-name="Ellipse 9 copy 4" class="cls-3" cx="37.5" cy="59.5" r="28.5"/>
  <circle id="Ellipse_9_copy_5" data-name="Ellipse 9 copy 5" class="cls-1" cx="38" cy="60" r="22"/>
  <circle id="Ellipse_9_copy_3" data-name="Ellipse 9 copy 3" class="cls-2" cx="38" cy="60" r="20"/>
  <circle id="Ellipse_9_copy_6" data-name="Ellipse 9 copy 6" class="cls-1" cx="38" cy="60" r="14"/>
  <circle id="Ellipse_9_copy_7" data-name="Ellipse 9 copy 7" class="cls-3" cx="38" cy="60" r="12"/>
  <circle id="Ellipse_9_copy_8" data-name="Ellipse 9 copy 8" class="cls-1" cx="38" cy="60" r="6"/>
  <circle id="Ellipse_9_copy_9" data-name="Ellipse 9 copy 9" class="cls-3" cx="38" cy="60" r="4"/>
  <path id="Shape_982_copy" data-name="Shape 982 copy" class="cls-4" d="M89,7.884V9h1.115l0.01,0.009h4.558a2.587,2.587,0,0,1,1.848.762h0a2.622,2.622,0,0,1,0,3.7L86.359,23.645a4.759,4.759,0,0,1-3.381,1.4l-3.095,0-4.831,0L40.1,60l-1.757,1.756-2.121-2.12L72.932,22.93v-2l0-5.924a4.754,4.754,0,0,1,1.4-3.38L84.509,1.453a2.622,2.622,0,0,1,3.706,0h0c0.491,0.491.762,3.976,0.761,4.676V7.859Z"/>
  <path id="Shape_980_copy_7" data-name="Shape 980 copy 7" class="cls-5" d="M86.8,2.868a0.6,0.6,0,0,1,.176.433l0,5.587L74.934,20.927l0-5.923a2.782,2.782,0,0,1,.815-1.966L85.924,2.867a0.615,0.615,0,0,1,.875,0"/>
  <path id="Shape_980_copy_7-2" data-name="Shape 980 copy 7" class="cls-5" d="M95.114,11.184a0.6,0.6,0,0,0-.433-0.176l-5.587,0L77.056,23.049l5.923,0a2.782,2.782,0,0,0,1.966-.815L95.116,12.059a0.616,0.616,0,0,0,0-.875"/>
</svg>
