<svg xmlns="http://www.w3.org/2000/svg" width="74" height="86" viewBox="0 0 74 86">
  <metadata><?xpacket begin="﻿" id="W5M0MpCehiHzreSzNTczkc9d"?>
<x:xmpmeta xmlns:x="adobe:ns:meta/" x:xmptk="Adobe XMP Core 5.6-c138 79.159824, 2016/09/14-01:09:01        ">
   <rdf:RDF xmlns:rdf="http://www.w3.org/1999/02/22-rdf-syntax-ns#">
      <rdf:Description rdf:about=""/>
   </rdf:RDF>
</x:xmpmeta>
                                                                                                    
                                                                                                    
                                                                                                    
                                                                                                    
                                                                                                    
                                                                                                    
                                                                                                    
                                                                                                    
                                                                                                    
                                                                                                    
                                                                                                    
                                                                                                    
                                                                                                    
                                                                                                    
                                                                                                    
                                                                                                    
                                                                                                    
                                                                                                    
                                                                                                    
                                                                                                    
                           
<?xpacket end="w"?></metadata>
<defs>
    <style>
      .cls-1 {
        fill: #226d4f;
      }

      .cls-1, .cls-2, .cls-3 {
        fill-rule: evenodd;
      }

      .cls-2 {
        fill: #16d488;
      }

      .cls-3 {
        fill: #c1ecdb;
      }
    </style>
  </defs>
  <path class="cls-1" d="M63.592,79.941a2.292,2.292,0,0,1-2.1,1.08l-4.111-.264L55.555,84.45a2.3,2.3,0,0,1-4.049.131L39.219,63.3l12.124-7L63.63,77.581A2.293,2.293,0,0,1,63.592,79.941Z"/>
  <path id="Shape_9790_copy" data-name="Shape 9790 copy" class="cls-2" d="M56.179,78.676l5.442,0.351a0.3,0.3,0,0,0,.277-0.445L50.611,59.031l-8.66,5L53.238,83.581a0.284,0.284,0,0,0,.267.148,0.281,0.281,0,0,0,.257-0.166l2.417-4.888"/>
  <path id="Shape_9790_copy_2" data-name="Shape 9790 copy 2" class="cls-1" d="M22.494,84.581a2.3,2.3,0,0,1-4.049-.131l-1.826-3.693-4.111.264a2.3,2.3,0,0,1-2.138-3.441L22.657,56.3l12.124,7Z"/>
  <path id="Shape_9790_copy_2-2" data-name="Shape 9790 copy 2" class="cls-2" d="M17.821,78.676l2.417,4.888a0.3,0.3,0,0,0,.524.018L32.049,64.032l-8.66-5L12.1,78.581a0.3,0.3,0,0,0,.277.445l5.442-.351"/>
  <path class="cls-1" d="M69.122,40.653c-1.411,1.218-2.87,2.476-3.275,3.723s0.035,3.124.46,4.939c0.584,2.487,1.187,5.058-.13,6.866-1.373,1.886-4.072,2.1-6.683,2.312-1.8.145-3.67,0.294-4.661,1.011-1.011.731-1.741,2.472-2.448,4.155-1,2.393-2.042,4.867-4.232,5.58-2.169.707-4.458-.675-6.672-2.009-1.575-.951-3.2-1.931-4.476-1.934-1.19,0-2.764.959-4.287,1.887-2.254,1.373-4.586,2.794-6.852,2.057s-3.318-3.256-4.334-5.692c-0.686-1.645-1.4-3.346-2.357-4.046-1.03-.745-2.924-0.91-4.758-1.066-2.575-.22-5.239-0.447-6.579-2.294-1.353-1.865-.738-4.477-0.144-7,0.418-1.777.85-3.614,0.462-4.8-0.38-1.164-1.8-2.382-3.177-3.559-1.989-1.7-4.045-3.465-4.048-5.8,0-2.237,2-3.963,3.931-5.632,1.411-1.217,2.87-2.477,3.275-3.724S8.1,22.5,7.677,20.689c-0.584-2.487-1.187-5.058.13-6.867,1.373-1.886,4.072-2.1,6.682-2.311,1.8-.145,3.671-0.294,4.662-1.012,1.011-.731,1.741-2.47,2.447-4.153,1-2.393,2.043-4.868,4.233-5.58C28,0.06,30.289,1.44,32.5,2.774c1.574,0.952,3.206,1.931,4.476,1.934,1.19,0,2.764-.959,4.286-1.887C43.519,1.448,45.85.027,48.117,0.764s3.318,3.256,4.335,5.692C53.138,8.1,53.847,9.8,54.81,10.5c1.028,0.75,2.926.911,4.758,1.068,2.576,0.22,5.239.448,6.578,2.294,1.353,1.863.738,4.475,0.144,7-0.418,1.776-.85,3.613-0.462,4.8,0.38,1.163,1.8,2.381,3.177,3.558,1.989,1.7,4.046,3.465,4.049,5.8C73.056,37.259,71.056,38.984,69.122,40.653Z"/>
  <path id="Shape_9789_copy" data-name="Shape 9789 copy" class="cls-2" d="M18.755,57.1a5.691,5.691,0,0,1,1.6.786c1.419,1.031,2.239,3,3.031,4.9,0.841,2.019,1.712,4.1,3.1,4.554s3.317-.726,5.184-1.863C33.428,64.4,35.247,63.3,37,63.3c1.833,0,3.706,1.128,5.518,2.222s3.712,2.239,5.007,1.819c1.319-.429,2.177-2.475,3.007-4.455,0.813-1.936,1.652-3.938,3.118-5,1.447-1.047,3.6-1.218,5.678-1.385,2.159-.173,4.391-0.352,5.222-1.494,0.78-1.071.282-3.189-.2-5.239-0.489-2.081-.993-4.233-0.416-6.009s2.251-3.22,3.869-4.617c1.594-1.375,3.241-2.8,3.24-4.121,0-1.414-1.7-2.87-3.347-4.279-1.585-1.357-3.224-2.761-3.779-4.458-0.563-1.719-.065-3.834.416-5.878,0.491-2.089,1-4.248.185-5.369-0.8-1.1-3-1.29-5.119-1.471S55.11,13.2,53.63,12.118c-1.419-1.031-2.239-3-3.032-4.9-0.842-2.017-1.712-4.1-3.1-4.555s-3.317.725-5.184,1.863C40.556,5.6,38.738,6.709,36.983,6.709c-1.835,0-3.706-1.13-5.518-2.222s-3.711-2.24-5.007-1.819c-1.319.429-2.178,2.474-3.008,4.453-0.812,1.936-1.652,3.939-3.117,5-1.447,1.046-3.6,1.219-5.678,1.385-2.158.174-4.39,0.352-5.222,1.5-0.78,1.07-.283,3.189.2,5.239,0.488,2.081.993,4.233,0.415,6.009S7.8,29.468,6.179,30.865c-1.594,1.375-3.242,2.8-3.24,4.121,0,1.413,1.7,2.87,3.346,4.279,1.585,1.357,3.224,2.761,3.78,4.458,0.562,1.719.065,3.833-.416,5.878-0.491,2.089-1,4.248-.185,5.37,0.8,1.1,3,1.291,5.12,1.472A19.176,19.176,0,0,1,18.755,57.1Zm1.236-3.8a9.579,9.579,0,0,1,2.728,1.361c2.33,1.692,3.416,4.3,4.375,6.6,0.212,0.507.509,1.22,0.786,1.791,0.56-.3,1.219-0.7,1.689-0.987,2.128-1.3,4.539-2.766,7.423-2.765,2.954-.006,5.531,1.552,7.6,2.8,0.422,0.254,1,.6,1.513.883,0.257-.54.526-1.181,0.721-1.646,0.98-2.335,2.087-4.974,4.46-6.69h0c2.356-1.7,5.2-1.932,7.7-2.134,0.513-.041,1.217-0.1,1.818-0.175-0.107-.561-0.257-1.2-0.366-1.665-0.557-2.371-1.249-5.319-.327-8.155s3.215-4.814,5.057-6.4c0.363-.314.859-0.742,1.276-1.134-0.439-.413-0.973-0.871-1.36-1.2-1.82-1.559-4.082-3.495-4.987-6.261-0.911-2.784-.255-5.572.324-8.032,0.116-.492.275-1.167,0.384-1.756-0.581-.076-1.252-0.133-1.743-0.175-2.415-.207-5.415-0.462-7.8-2.2-2.327-1.691-3.414-4.3-4.373-6.594-0.213-.511-0.51-1.222-0.788-1.794-0.56.3-1.219,0.7-1.688,0.987-2.128,1.3-4.539,2.765-7.423,2.765-2.947,0-5.516-1.545-7.579-2.789-0.434-.262-1.018-0.615-1.536-0.9-0.257.54-.526,1.182-0.722,1.647C26.179,11,25.072,13.641,22.7,15.359s-5.328,1.944-7.712,2.135c-0.511.041-1.213,0.1-1.811,0.174,0.107,0.562.257,1.2,0.366,1.666,0.556,2.372,1.248,5.319.326,8.155s-3.213,4.814-5.055,6.4c-0.364.315-.86,0.742-1.278,1.135,0.439,0.413.972,0.869,1.359,1.2,1.821,1.559,4.082,3.5,4.988,6.262,0.912,2.785.255,5.573-.324,8.033-0.116.492-.275,1.168-0.384,1.756,0.581,0.075,1.254.133,1.745,0.175A22.507,22.507,0,0,1,19.991,53.3ZM45.558,63.94h0ZM6.77,35.855h0Zm54.171,17.6h0ZM6.791,34.211h0Zm55.1,17.9h0Zm5.3-16.32h0Zm-55.1-17.9h0Zm0.949-1.343h0Zm54.172,17.6h0ZM26.861,6.562h0Zm1.565-.5h0ZM60.932,16.626h0Z"/>
  <path id="Shape_9789_copy_2" data-name="Shape 9789 copy 2" class="cls-3" d="M19.991,53.3a9.579,9.579,0,0,1,2.728,1.361c2.33,1.692,3.416,4.3,4.375,6.6,0.212,0.507.509,1.22,0.786,1.791,0.56-.3,1.219-0.7,1.689-0.987,2.128-1.3,4.539-2.766,7.423-2.765,2.954-.006,5.531,1.552,7.6,2.8,0.422,0.254,1,.6,1.513.883,0.257-.54.526-1.181,0.721-1.646,0.98-2.335,2.087-4.974,4.46-6.69h0c2.356-1.7,5.2-1.932,7.7-2.134,0.513-.041,1.217-0.1,1.818-0.175-0.107-.561-0.257-1.2-0.366-1.665-0.557-2.371-1.249-5.319-.327-8.155s3.215-4.814,5.057-6.4c0.363-.314.859-0.742,1.276-1.134-0.439-.413-0.973-0.871-1.36-1.2-1.82-1.559-4.082-3.495-4.987-6.261-0.911-2.784-.255-5.572.324-8.032,0.116-.492.275-1.167,0.384-1.756-0.581-.076-1.252-0.133-1.743-0.175-2.415-.207-5.415-0.462-7.8-2.2-2.327-1.691-3.414-4.3-4.373-6.594-0.213-.511-0.51-1.222-0.788-1.794-0.56.3-1.219,0.7-1.688,0.987-2.128,1.3-4.539,2.765-7.423,2.765-2.947,0-5.516-1.545-7.579-2.789-0.434-.262-1.018-0.615-1.536-0.9-0.257.54-.526,1.182-0.722,1.647C26.179,11,25.072,13.641,22.7,15.359s-5.328,1.944-7.712,2.135c-0.511.041-1.213,0.1-1.811,0.174,0.107,0.562.257,1.2,0.366,1.666,0.556,2.372,1.248,5.319.326,8.155s-3.213,4.814-5.055,6.4c-0.364.315-.86,0.742-1.278,1.135,0.439,0.413.972,0.869,1.359,1.2,1.821,1.559,4.082,3.5,4.988,6.262,0.912,2.785.255,5.573-.324,8.033-0.116.492-.275,1.168-0.384,1.756,0.581,0.075,1.254.133,1.745,0.175A22.507,22.507,0,0,1,19.991,53.3ZM45.558,63.94h0ZM6.77,35.855h0Zm54.171,17.6h0ZM6.791,34.211h0Zm55.1,17.9h0Zm5.3-16.32h0Zm-55.1-17.9h0Zm0.949-1.343h0Zm54.172,17.6h0ZM26.861,6.562h0Zm1.565-.5h0ZM60.932,16.626h0Z"/>
</svg>
