<svg 
 xmlns="http://www.w3.org/2000/svg"
 xmlns:xlink="http://www.w3.org/1999/xlink"
 width="140" height="90" viewBox="0 0 140 90">
<path fill-rule="evenodd"  fill="rgb(240, 247, 245)"
 d="M135.000,29.995 L85.000,29.995 C82.191,29.995 80.000,32.234 80.000,34.996 C80.000,37.755 82.191,39.996 85.000,39.996 L126.000,39.996 C128.789,39.996 131.000,42.233 131.000,44.995 C131.000,47.756 128.789,49.996 126.000,49.996 L120.000,49.996 C117.192,49.996 115.000,52.234 115.000,54.996 C115.000,57.757 117.192,59.995 120.000,59.995 L130.000,59.995 C132.789,59.995 135.000,62.236 135.000,64.996 C135.000,67.757 132.789,69.996 130.000,69.996 L90.000,69.996 C87.191,69.996 85.000,72.233 85.000,74.995 C85.000,77.757 87.191,79.996 90.000,79.996 L118.000,79.996 C120.789,79.996 123.000,82.233 123.000,84.994 C123.000,87.756 120.789,89.996 118.000,89.996 L17.000,89.996 C14.210,89.996 12.000,87.756 12.000,84.994 C12.000,82.233 14.210,79.996 17.000,79.996 L70.000,79.996 C72.808,79.996 75.000,77.757 75.000,74.995 C75.000,72.233 72.808,69.996 70.000,69.996 L23.000,69.996 C20.210,69.996 18.000,67.757 18.000,64.996 C18.000,62.236 20.210,59.995 23.000,59.995 L100.000,59.995 C102.808,59.995 105.000,57.757 105.000,54.996 C105.000,52.234 102.808,49.996 100.000,49.996 L5.000,49.996 C2.211,49.996 -0.000,47.756 -0.000,44.995 C-0.000,42.233 2.211,39.996 5.000,39.996 L60.000,39.996 C62.808,39.996 65.000,37.755 65.000,34.996 C65.000,32.234 62.808,29.995 60.000,29.995 L42.000,29.995 C39.210,29.995 37.000,27.758 37.000,24.995 C37.000,22.233 39.210,19.995 42.000,19.995 L60.000,19.995 C62.808,19.995 65.000,17.758 65.000,14.996 C65.000,12.233 62.808,9.994 60.000,9.994 L21.000,9.994 C18.210,9.994 16.000,7.757 16.000,4.995 C16.000,2.235 18.210,-0.005 21.000,-0.005 L119.000,-0.005 C121.789,-0.005 124.000,2.235 124.000,4.995 C124.000,7.757 121.789,9.994 119.000,9.994 L110.000,9.994 C107.192,9.994 105.000,12.233 105.000,14.996 C105.000,17.758 107.192,19.995 110.000,19.995 L135.000,19.995 C137.789,19.995 140.000,22.233 140.000,24.995 C140.000,27.758 137.789,29.995 135.000,29.995 ZM27.000,24.995 C27.000,27.756 24.761,29.996 22.000,29.996 L5.000,29.996 C2.238,29.996 -0.000,27.756 -0.000,24.995 C-0.000,22.235 2.238,19.995 5.000,19.995 L22.000,19.995 C24.761,19.995 27.000,22.235 27.000,24.995 Z"/>
</svg>