<svg 
 xmlns="http://www.w3.org/2000/svg"
 xmlns:xlink="http://www.w3.org/1999/xlink"
 width="142" height="90" viewBox="0 0 142 90">
<path fill-rule="evenodd"  fill="rgb(240, 247, 245)"
 d="M137.000,29.995 L107.000,29.995 C104.191,29.995 102.000,32.234 102.000,34.996 C102.000,37.755 104.191,39.996 107.000,39.996 L114.000,39.996 C116.789,39.996 119.000,42.233 119.000,44.995 C119.000,47.756 116.789,49.996 114.000,49.996 L72.000,49.996 C69.192,49.996 67.000,52.234 67.000,54.996 C67.000,57.757 69.192,59.995 72.000,59.995 L109.000,59.995 C111.789,59.995 114.000,62.236 114.000,64.996 C114.000,67.757 111.789,69.996 109.000,69.996 L102.000,69.996 C99.191,69.996 97.000,72.233 97.000,74.995 C97.000,77.757 99.191,79.996 102.000,79.996 L130.000,79.996 C132.789,79.996 135.000,82.233 135.000,84.994 C135.000,87.756 132.789,89.996 130.000,89.996 L29.000,89.996 C26.210,89.996 24.000,87.756 24.000,84.994 C24.000,82.233 26.210,79.996 29.000,79.996 L62.000,79.996 C64.808,79.996 67.000,77.757 67.000,74.995 C67.000,72.233 64.808,69.996 62.000,69.996 L5.000,69.996 C2.211,69.996 -0.000,67.757 -0.000,64.996 C-0.000,62.236 2.211,59.995 5.000,59.995 L42.000,59.995 C44.808,59.995 47.000,57.757 47.000,54.996 C47.000,52.234 44.808,49.996 42.000,49.996 L27.000,49.996 C24.211,49.996 22.000,47.756 22.000,44.995 C22.000,42.233 24.211,39.996 27.000,39.996 L32.000,39.996 C34.808,39.996 37.000,37.755 37.000,34.996 C37.000,32.234 34.808,29.995 32.000,29.995 L24.000,29.995 C21.210,29.995 19.000,27.758 19.000,24.995 C19.000,22.233 21.210,19.995 24.000,19.995 L52.000,19.995 C54.808,19.995 57.000,17.758 57.000,14.996 C57.000,12.233 54.808,9.994 52.000,9.994 L13.000,9.994 C10.210,9.994 8.000,7.757 8.000,4.995 C8.000,2.235 10.210,-0.005 13.000,-0.005 L87.000,-0.005 C89.789,-0.005 92.000,2.235 92.000,4.995 C92.000,7.757 89.789,9.994 87.000,9.994 L72.000,9.994 C69.192,9.994 67.000,12.233 67.000,14.996 C67.000,17.758 69.192,19.995 72.000,19.995 L137.000,19.995 C139.789,19.995 142.000,22.233 142.000,24.995 C142.000,27.758 139.789,29.995 137.000,29.995 ZM129.000,4.996 C129.000,7.757 126.761,9.996 124.000,9.996 L107.000,9.996 C104.238,9.996 102.000,7.757 102.000,4.996 C102.000,2.235 104.238,-0.004 107.000,-0.004 L124.000,-0.004 C126.761,-0.004 129.000,2.235 129.000,4.996 Z"/>
</svg>