<svg 
 xmlns="http://www.w3.org/2000/svg"
 xmlns:xlink="http://www.w3.org/1999/xlink"
 width="138" height="90" viewBox="0 0 138 90">
<path fill-rule="evenodd"  fill="rgb(240, 247, 245)"
 d="M133.000,29.995 L113.000,29.995 C110.191,29.995 108.000,32.234 108.000,34.996 C108.000,37.755 110.191,39.996 113.000,39.996 L124.000,39.996 C126.789,39.996 129.000,42.233 129.000,44.995 C129.000,47.756 126.789,49.996 124.000,49.996 L78.000,49.996 C75.192,49.996 73.000,52.234 73.000,54.996 C73.000,57.757 75.192,59.995 78.000,59.995 L118.000,59.995 C120.789,59.995 123.000,62.236 123.000,64.996 C123.000,67.757 120.789,69.996 118.000,69.996 L108.000,69.996 C105.192,69.996 103.000,72.233 103.000,74.995 C103.000,77.757 105.192,79.996 108.000,79.996 L126.000,79.996 C128.789,79.996 131.000,82.233 131.000,84.994 C131.000,87.756 128.789,89.996 126.000,89.996 L15.000,89.996 C12.210,89.996 10.000,87.756 10.000,84.994 C10.000,82.233 12.210,79.996 15.000,79.996 L68.000,79.996 C70.808,79.996 73.000,77.757 73.000,74.995 C73.000,72.233 70.808,69.996 68.000,69.996 L41.000,69.996 C38.211,69.996 36.000,67.757 36.000,64.996 C36.000,62.236 38.211,59.995 41.000,59.995 L48.000,59.995 C50.808,59.995 53.000,57.757 53.000,54.996 C53.000,52.234 50.808,49.996 48.000,49.996 L13.000,49.996 C10.211,49.996 8.000,47.756 8.000,44.995 C8.000,42.233 10.211,39.996 13.000,39.996 L38.000,39.996 C40.808,39.996 43.000,37.755 43.000,34.996 C43.000,32.234 40.808,29.995 38.000,29.995 L10.000,29.995 C7.210,29.995 5.000,27.758 5.000,24.995 C5.000,22.233 7.210,19.995 10.000,19.995 L48.000,19.995 C50.808,19.995 53.000,17.758 53.000,14.996 C53.000,12.233 50.808,9.994 48.000,9.994 L9.000,9.994 C6.210,9.994 4.000,7.757 4.000,4.995 C4.000,2.235 6.210,-0.005 9.000,-0.005 L133.000,-0.005 C135.789,-0.005 138.000,2.235 138.000,4.995 C138.000,7.757 135.789,9.994 133.000,9.994 L88.000,9.994 C85.192,9.994 83.000,12.233 83.000,14.996 C83.000,17.758 85.192,19.995 88.000,19.995 L133.000,19.995 C135.789,19.995 138.000,22.233 138.000,24.995 C138.000,27.758 135.789,29.995 133.000,29.995 ZM27.000,64.996 C27.000,67.757 24.761,69.996 22.000,69.996 L5.000,69.996 C2.238,69.996 -0.000,67.757 -0.000,64.996 C-0.000,62.236 2.238,59.995 5.000,59.995 L22.000,59.995 C24.761,59.995 27.000,62.236 27.000,64.996 Z"/>
</svg>