<svg xmlns="http://www.w3.org/2000/svg" width="91" height="101" viewBox="0 0 91 101">
  <metadata><?xpacket begin="﻿" id="W5M0MpCehiHzreSzNTczkc9d"?>
<x:xmpmeta xmlns:x="adobe:ns:meta/" x:xmptk="Adobe XMP Core 5.6-c138 79.159824, 2016/09/14-01:09:01        ">
   <rdf:RDF xmlns:rdf="http://www.w3.org/1999/02/22-rdf-syntax-ns#">
      <rdf:Description rdf:about=""/>
   </rdf:RDF>
</x:xmpmeta>
                                                                                                    
                                                                                                    
                                                                                                    
                                                                                                    
                                                                                                    
                                                                                                    
                                                                                                    
                                                                                                    
                                                                                                    
                                                                                                    
                                                                                                    
                                                                                                    
                                                                                                    
                                                                                                    
                                                                                                    
                                                                                                    
                                                                                                    
                                                                                                    
                                                                                                    
                                                                                                    
                           
<?xpacket end="w"?></metadata>
<defs>
    <style>
      .cls-1, .cls-4 {
        fill: #246e50;
      }

      .cls-1, .cls-2, .cls-3 {
        fill-rule: evenodd;
      }

      .cls-2, .cls-5 {
        fill: #16d488;
      }

      .cls-3 {
        fill: #c1ecdb;
      }
    </style>
  </defs>
  <path class="cls-1" d="M36.65,100.983H11.35A11.363,11.363,0,0,1,0,89.633v-16.1C0,60.462,10.374,49.456,23.126,49A24,24,0,0,1,48,72.985V89.633A11.363,11.363,0,0,1,36.65,100.983Z"/>
  <path id="Shape_980_copy_2" data-name="Shape 980 copy 2" class="cls-2" d="M23.2,50.993C11.509,51.409,2,61.523,2,73.536v16.1a9.362,9.362,0,0,0,9.35,9.353h25.3A9.362,9.362,0,0,0,46,89.638V72.985A22,22,0,0,0,23.2,50.993h0Z"/>
  <path id="Shape_980_copy_4" data-name="Shape 980 copy 4" class="cls-3" d="M14.7,57.7a19.965,19.965,0,0,0,18.712-.053A18.1,18.1,0,0,1,36.5,60.031,17.86,17.86,0,0,1,42,72.988V87.34a7.659,7.659,0,0,1-7.65,7.652H13.65A7.659,7.659,0,0,1,6,87.34v-13.9A18.681,18.681,0,0,1,14.7,57.7Z"/>
  <circle id="Shape_980_copy_3" data-name="Shape 980 copy 3" class="cls-4" cx="24" cy="40" r="16"/>
  <circle id="Shape_980_copy" data-name="Shape 980 copy" class="cls-5" cx="24" cy="40" r="14"/>
  <path class="cls-1" d="M29,50a6.007,6.007,0,0,1-6-6,3,3,0,0,1,3-3h3a2,2,0,0,1,2,2v5A2,2,0,0,1,29,50Z"/>
  <path id="Shape_9782_copy_3" data-name="Shape 9782 copy 3" class="cls-3" d="M26,43a1,1,0,0,0-1,1,4,4,0,0,0,4,4V43H26Z"/>
  <circle class="cls-4" cx="21" cy="36" r="2"/>
  <circle id="Ellipse_10_copy" data-name="Ellipse 10 copy" class="cls-4" cx="33" cy="36" r="2"/>
  <path class="cls-1" d="M77,28H59a13.919,13.919,0,0,1-6.948-1.857,17.351,17.351,0,0,1-6.011,4.87,0.626,0.626,0,0,1-.7-1.023,17.409,17.409,0,0,0,4.013-5.861A13.988,13.988,0,0,1,59,0H77A14,14,0,1,1,77,28Z"/>
  <rect id="Rounded_Rectangle_9_copy" data-name="Rounded Rectangle 9 copy" class="cls-5" x="47" y="2" width="42" height="24" rx="12" ry="12"/>
  <path id="Shape_9783_copy_2" data-name="Shape 9783 copy 2" class="cls-1" d="M62,16h0a1,1,0,0,1-1-1V8a1,1,0,0,1,1-1h0a1,1,0,0,1,1,1v7A1,1,0,0,1,62,16Zm1,4a1,1,0,1,1-1-1A1,1,0,0,1,63,20Zm5-4h0a1,1,0,0,1-1-1V8a1,1,0,0,1,1-1h0a1,1,0,0,1,1,1v7A1,1,0,0,1,68,16Zm1,4a1,1,0,1,1-1-1A1,1,0,0,1,69,20Zm5-4h0a1,1,0,0,1-1-1V8a1,1,0,0,1,1-1h0a1,1,0,0,1,1,1v7A1,1,0,0,1,74,16Zm1,4a1,1,0,1,1-1-1A1,1,0,0,1,75,20Z"/>
</svg>
